<svg xmlns="http://www.w3.org/2000/svg" xmlns:xlink="http://www.w3.org/1999/xlink" version="1.1" width="736px" height="416px" viewBox="-0.5 -0.5 736 416"><defs/><g><rect x="615" y="250" width="120" height="30" fill="none" stroke="none" pointer-events="all"/><g fill="rgb(0, 0, 0)" font-family="Times New Roman" text-anchor="middle" font-size="17px"><text x="674.5" y="272">Hidden Leayer</text></g><rect x="625" y="330" width="50" height="30" fill="none" stroke="none" pointer-events="all"/><g fill="rgb(0, 0, 0)" font-family="Times New Roman" text-anchor="middle" font-size="17px"><text x="649.5" y="352">Input</text></g><ellipse cx="343" cy="185" rx="15" ry="15" fill="rgb(255, 255, 255)" stroke="rgb(0, 0, 0)" pointer-events="all"/><ellipse cx="403" cy="185" rx="15" ry="15" fill="rgb(255, 255, 255)" stroke="rgb(0, 0, 0)" pointer-events="all"/><path d="M 463 170 L 508.11 120.32" fill="none" stroke="rgb(0, 0, 0)" stroke-miterlimit="10" pointer-events="stroke"/><path d="M 511.64 116.43 L 509.53 123.97 L 508.11 120.32 L 504.34 119.26 Z" fill="rgb(0, 0, 0)" stroke="rgb(0, 0, 0)" stroke-miterlimit="10" pointer-events="all"/><ellipse cx="463" cy="185" rx="15" ry="15" fill="rgb(255, 255, 255)" stroke="rgb(0, 0, 0)" pointer-events="all"/><path d="M 523 170 L 523 126.37" fill="none" stroke="rgb(0, 0, 0)" stroke-miterlimit="10" pointer-events="stroke"/><path d="M 523 121.12 L 526.5 128.12 L 523 126.37 L 519.5 128.12 Z" fill="rgb(0, 0, 0)" stroke="rgb(0, 0, 0)" stroke-miterlimit="10" pointer-events="all"/><path d="M 523 170 L 568.11 120.32" fill="none" stroke="rgb(0, 0, 0)" stroke-miterlimit="10" pointer-events="stroke"/><path d="M 571.64 116.43 L 569.53 123.97 L 568.11 120.32 L 564.34 119.26 Z" fill="rgb(0, 0, 0)" stroke="rgb(0, 0, 0)" stroke-miterlimit="10" pointer-events="all"/><ellipse cx="523" cy="185" rx="15" ry="15" fill="rgb(255, 255, 255)" stroke="rgb(0, 0, 0)" pointer-events="all"/><path d="M 583 170 L 583 126.37" fill="none" stroke="rgb(0, 0, 0)" stroke-miterlimit="10" pointer-events="stroke"/><path d="M 583 121.12 L 586.5 128.12 L 583 126.37 L 579.5 128.12 Z" fill="rgb(0, 0, 0)" stroke="rgb(0, 0, 0)" stroke-miterlimit="10" pointer-events="all"/><ellipse cx="583" cy="185" rx="15" ry="15" fill="rgb(255, 255, 255)" stroke="rgb(0, 0, 0)" pointer-events="all"/><rect x="615" y="170" width="120" height="30" fill="none" stroke="none" pointer-events="all"/><g fill="rgb(0, 0, 0)" font-family="Times New Roman" text-anchor="middle" font-size="17px"><text x="674.5" y="192">Hidden Leayer</text></g><ellipse cx="343" cy="25" rx="15" ry="15" fill="#ffe6cc" stroke="#d79b00" pointer-events="all"/><ellipse cx="403" cy="25" rx="15" ry="15" fill="#ffe6cc" stroke="#d79b00" pointer-events="all"/><ellipse cx="463" cy="25" rx="15" ry="15" fill="#ffe6cc" stroke="#d79b00" pointer-events="all"/><ellipse cx="523" cy="25" rx="15" ry="15" fill="#ffe6cc" stroke="#d79b00" pointer-events="all"/><ellipse cx="583" cy="25" rx="15" ry="15" fill="#ffe6cc" stroke="#d79b00" pointer-events="all"/><rect x="625" y="10" width="60" height="30" fill="none" stroke="none" pointer-events="all"/><g fill="rgb(0, 0, 0)" font-family="Times New Roman" text-anchor="middle" font-size="17px"><text x="654.5" y="32">Output</text></g><ellipse cx="343" cy="105" rx="15" ry="15" fill="rgb(255, 255, 255)" stroke="rgb(0, 0, 0)" pointer-events="all"/><ellipse cx="403" cy="105" rx="15" ry="15" fill="rgb(255, 255, 255)" stroke="rgb(0, 0, 0)" pointer-events="all"/><ellipse cx="463" cy="105" rx="15" ry="15" fill="rgb(255, 255, 255)" stroke="rgb(0, 0, 0)" pointer-events="all"/><ellipse cx="523" cy="105" rx="15" ry="15" fill="rgb(255, 255, 255)" stroke="rgb(0, 0, 0)" pointer-events="all"/><path d="M 583 90 L 583 46.37" fill="none" stroke="rgb(0, 0, 0)" stroke-miterlimit="10" pointer-events="stroke"/><path d="M 583 41.12 L 586.5 48.12 L 583 46.37 L 579.5 48.12 Z" fill="rgb(0, 0, 0)" stroke="rgb(0, 0, 0)" stroke-miterlimit="10" pointer-events="all"/><ellipse cx="583" cy="105" rx="15" ry="15" fill="rgb(255, 255, 255)" stroke="rgb(0, 0, 0)" pointer-events="all"/><rect x="615" y="90" width="120" height="30" fill="none" stroke="none" pointer-events="all"/><g fill="rgb(0, 0, 0)" font-family="Times New Roman" text-anchor="middle" font-size="17px"><text x="674.5" y="112">Hidden Leayer</text></g><path d="M 343 330 L 388.11 280.32" fill="none" stroke="rgb(0, 0, 0)" stroke-miterlimit="10" pointer-events="stroke"/><path d="M 391.64 276.43 L 389.53 283.97 L 388.11 280.32 L 384.34 279.26 Z" fill="rgb(0, 0, 0)" stroke="rgb(0, 0, 0)" stroke-miterlimit="10" pointer-events="all"/><ellipse cx="343" cy="345" rx="15" ry="15" fill="#dae8fc" stroke="#6c8ebf" pointer-events="all"/><ellipse cx="343" cy="265" rx="15" ry="15" fill="rgb(255, 255, 255)" stroke="rgb(0, 0, 0)" pointer-events="all"/><path d="M 343 330 L 343 280" fill="none" stroke="rgb(0, 0, 0)" stroke-width="2" stroke-miterlimit="10" stroke-dasharray="2 6" pointer-events="stroke"/><path d="M 403 330 L 403 286.37" fill="none" stroke="rgb(0, 0, 0)" stroke-miterlimit="10" pointer-events="stroke"/><path d="M 403 281.12 L 406.5 288.12 L 403 286.37 L 399.5 288.12 Z" fill="rgb(0, 0, 0)" stroke="rgb(0, 0, 0)" stroke-miterlimit="10" pointer-events="all"/><path d="M 403 330 L 448.11 280.32" fill="none" stroke="rgb(0, 0, 0)" stroke-miterlimit="10" pointer-events="stroke"/><path d="M 451.64 276.43 L 449.53 283.97 L 448.11 280.32 L 444.34 279.26 Z" fill="rgb(0, 0, 0)" stroke="rgb(0, 0, 0)" stroke-miterlimit="10" pointer-events="all"/><ellipse cx="403" cy="345" rx="15" ry="15" fill="#dae8fc" stroke="#6c8ebf" pointer-events="all"/><ellipse cx="403" cy="265" rx="15" ry="15" fill="rgb(255, 255, 255)" stroke="rgb(0, 0, 0)" pointer-events="all"/><path d="M 463 330 L 463 286.37" fill="none" stroke="rgb(0, 0, 0)" stroke-miterlimit="10" pointer-events="stroke"/><path d="M 463 281.12 L 466.5 288.12 L 463 286.37 L 459.5 288.12 Z" fill="rgb(0, 0, 0)" stroke="rgb(0, 0, 0)" stroke-miterlimit="10" pointer-events="all"/><path d="M 463 330 L 508.11 280.32" fill="none" stroke="rgb(0, 0, 0)" stroke-miterlimit="10" pointer-events="stroke"/><path d="M 511.64 276.43 L 509.53 283.97 L 508.11 280.32 L 504.34 279.26 Z" fill="rgb(0, 0, 0)" stroke="rgb(0, 0, 0)" stroke-miterlimit="10" pointer-events="all"/><ellipse cx="463" cy="345" rx="15" ry="15" fill="#dae8fc" stroke="#6c8ebf" pointer-events="all"/><path d="M 463 250 L 508.11 200.32" fill="none" stroke="rgb(0, 0, 0)" stroke-miterlimit="10" pointer-events="stroke"/><path d="M 511.64 196.43 L 509.53 203.97 L 508.11 200.32 L 504.34 199.26 Z" fill="rgb(0, 0, 0)" stroke="rgb(0, 0, 0)" stroke-miterlimit="10" pointer-events="all"/><ellipse cx="463" cy="265" rx="15" ry="15" fill="rgb(255, 255, 255)" stroke="rgb(0, 0, 0)" pointer-events="all"/><path d="M 523 330 L 523 286.37" fill="none" stroke="rgb(0, 0, 0)" stroke-miterlimit="10" pointer-events="stroke"/><path d="M 523 281.12 L 526.5 288.12 L 523 286.37 L 519.5 288.12 Z" fill="rgb(0, 0, 0)" stroke="rgb(0, 0, 0)" stroke-miterlimit="10" pointer-events="all"/><path d="M 523 330 L 568.11 280.32" fill="none" stroke="rgb(0, 0, 0)" stroke-miterlimit="10" pointer-events="stroke"/><path d="M 571.64 276.43 L 569.53 283.97 L 568.11 280.32 L 564.34 279.26 Z" fill="rgb(0, 0, 0)" stroke="rgb(0, 0, 0)" stroke-miterlimit="10" pointer-events="all"/><ellipse cx="523" cy="345" rx="15" ry="15" fill="#dae8fc" stroke="#6c8ebf" pointer-events="all"/><path d="M 523 250 L 568.11 200.32" fill="none" stroke="rgb(0, 0, 0)" stroke-miterlimit="10" pointer-events="stroke"/><path d="M 571.64 196.43 L 569.53 203.97 L 568.11 200.32 L 564.34 199.26 Z" fill="rgb(0, 0, 0)" stroke="rgb(0, 0, 0)" stroke-miterlimit="10" pointer-events="all"/><path d="M 523 250 L 523 206.37" fill="none" stroke="rgb(0, 0, 0)" stroke-miterlimit="10" pointer-events="stroke"/><path d="M 523 201.12 L 526.5 208.12 L 523 206.37 L 519.5 208.12 Z" fill="rgb(0, 0, 0)" stroke="rgb(0, 0, 0)" stroke-miterlimit="10" pointer-events="all"/><ellipse cx="523" cy="265" rx="15" ry="15" fill="rgb(255, 255, 255)" stroke="rgb(0, 0, 0)" pointer-events="all"/><path d="M 583 330 L 583 286.37" fill="none" stroke="rgb(0, 0, 0)" stroke-miterlimit="10" pointer-events="stroke"/><path d="M 583 281.12 L 586.5 288.12 L 583 286.37 L 579.5 288.12 Z" fill="rgb(0, 0, 0)" stroke="rgb(0, 0, 0)" stroke-miterlimit="10" pointer-events="all"/><ellipse cx="583" cy="345" rx="15" ry="15" fill="#dae8fc" stroke="#6c8ebf" pointer-events="all"/><path d="M 583 250 L 583 206.37" fill="none" stroke="rgb(0, 0, 0)" stroke-miterlimit="10" pointer-events="stroke"/><path d="M 583 201.12 L 586.5 208.12 L 583 206.37 L 579.5 208.12 Z" fill="rgb(0, 0, 0)" stroke="rgb(0, 0, 0)" stroke-miterlimit="10" pointer-events="all"/><ellipse cx="583" cy="265" rx="15" ry="15" fill="rgb(255, 255, 255)" stroke="rgb(0, 0, 0)" pointer-events="all"/><path d="M 343 250 L 343 200" fill="none" stroke="rgb(0, 0, 0)" stroke-width="2" stroke-miterlimit="10" stroke-dasharray="2 6" pointer-events="stroke"/><path d="M 403 250 L 403 200" fill="none" stroke="rgb(0, 0, 0)" stroke-width="2" stroke-miterlimit="10" stroke-dasharray="2 6" pointer-events="stroke"/><path d="M 463 250 L 463 206.37" fill="none" stroke="rgb(0, 0, 0)" stroke-miterlimit="10" pointer-events="stroke"/><path d="M 463 201.12 L 466.5 208.12 L 463 206.37 L 459.5 208.12 Z" fill="rgb(0, 0, 0)" stroke="rgb(0, 0, 0)" stroke-miterlimit="10" pointer-events="all"/><path d="M 403 250 L 448.11 200.32" fill="none" stroke="rgb(0, 0, 0)" stroke-miterlimit="10" pointer-events="stroke"/><path d="M 451.64 196.43 L 449.53 203.97 L 448.11 200.32 L 444.34 199.26 Z" fill="rgb(0, 0, 0)" stroke="rgb(0, 0, 0)" stroke-miterlimit="10" pointer-events="all"/><path d="M 343 250 L 392.39 195.61" fill="none" stroke="rgb(0, 0, 0)" stroke-width="2" stroke-miterlimit="10" stroke-dasharray="2 6" pointer-events="stroke"/><path d="M 343 170 L 343 120" fill="none" stroke="rgb(0, 0, 0)" stroke-width="2" stroke-miterlimit="10" stroke-dasharray="2 6" pointer-events="stroke"/><path d="M 403 170 L 403 120" fill="none" stroke="rgb(0, 0, 0)" stroke-width="2" stroke-miterlimit="10" stroke-dasharray="2 6" pointer-events="stroke"/><path d="M 463 170 L 463 120" fill="none" stroke="rgb(0, 0, 0)" stroke-width="2" stroke-miterlimit="10" stroke-dasharray="2 6" pointer-events="stroke"/><path d="M 403 170 L 452.39 115.61" fill="none" stroke="rgb(0, 0, 0)" stroke-width="2" stroke-miterlimit="10" stroke-dasharray="2 6" pointer-events="stroke"/><path d="M 343 170 L 392.39 115.61" fill="none" stroke="rgb(0, 0, 0)" stroke-width="2" stroke-miterlimit="10" stroke-dasharray="2 6" pointer-events="stroke"/><path d="M 343 90 L 343 40" fill="none" stroke="rgb(0, 0, 0)" stroke-width="2" stroke-miterlimit="10" stroke-dasharray="2 6" pointer-events="stroke"/><path d="M 403 90 L 403 40" fill="none" stroke="rgb(0, 0, 0)" stroke-width="2" stroke-miterlimit="10" stroke-dasharray="2 6" pointer-events="stroke"/><path d="M 463 90 L 463 40" fill="none" stroke="rgb(0, 0, 0)" stroke-width="2" stroke-miterlimit="10" stroke-dasharray="2 6" pointer-events="stroke"/><path d="M 403 90 L 452.39 35.61" fill="none" stroke="rgb(0, 0, 0)" stroke-width="2" stroke-miterlimit="10" stroke-dasharray="2 6" pointer-events="stroke"/><path d="M 523 90 L 523 40" fill="none" stroke="rgb(0, 0, 0)" stroke-width="2" stroke-miterlimit="10" stroke-dasharray="2 6" pointer-events="stroke"/><path d="M 343 90 L 392.39 35.61" fill="none" stroke="rgb(0, 0, 0)" stroke-width="2" stroke-miterlimit="10" stroke-dasharray="2 6" pointer-events="stroke"/><path d="M 463 90 L 512.39 35.61" fill="none" stroke="rgb(0, 0, 0)" stroke-width="2" stroke-miterlimit="10" stroke-dasharray="2 6" pointer-events="stroke"/><path d="M 523 90 L 568.11 40.32" fill="none" stroke="rgb(0, 0, 0)" stroke-miterlimit="10" pointer-events="stroke"/><path d="M 571.64 36.43 L 569.53 43.97 L 568.11 40.32 L 564.34 39.26 Z" fill="rgb(0, 0, 0)" stroke="rgb(0, 0, 0)" stroke-miterlimit="10" pointer-events="all"/><rect x="393" y="385" width="140" height="30" fill="none" stroke="none" pointer-events="all"/><g fill="rgb(0, 0, 0)" font-family="Times New Roman" text-anchor="middle" font-size="17px"><text x="462.5" y="407">Convolution Layer</text></g><rect x="40" y="385" width="190" height="30" fill="none" stroke="none" pointer-events="all"/><g fill="rgb(0, 0, 0)" font-family="Times New Roman" text-anchor="middle" font-size="17px"><text x="134.5" y="407">Vision Transformer Layer</text></g><path d="M 15 330 L 15 40" fill="none" stroke="rgb(0, 0, 0)" stroke-miterlimit="10" stroke-dasharray="3 3" pointer-events="stroke"/><path d="M 15 330 L 75 40" fill="none" stroke="rgb(0, 0, 0)" stroke-miterlimit="10" stroke-dasharray="3 3" pointer-events="stroke"/><path d="M 15 330 L 135 40" fill="none" stroke="rgb(0, 0, 0)" stroke-miterlimit="10" stroke-dasharray="3 3" pointer-events="stroke"/><path d="M 15 330 L 250.94 44.91" fill="none" stroke="rgb(0, 0, 0)" stroke-miterlimit="10" pointer-events="stroke"/><path d="M 254.29 40.86 L 252.52 48.49 L 250.94 44.91 L 247.13 44.02 Z" fill="rgb(0, 0, 0)" stroke="rgb(0, 0, 0)" stroke-miterlimit="10" pointer-events="all"/><ellipse cx="15" cy="345" rx="15" ry="15" fill="#dae8fc" stroke="#6c8ebf" pointer-events="all"/><ellipse cx="15" cy="25" rx="15" ry="15" fill="#ffe6cc" stroke="#d79b00" pointer-events="all"/><ellipse cx="75" cy="25" rx="15" ry="15" fill="#ffe6cc" stroke="#d79b00" pointer-events="all"/><path d="M 135 40 L 75 330" fill="none" stroke="rgb(0, 0, 0)" stroke-miterlimit="10" stroke-dasharray="3 3" pointer-events="stroke"/><path d="M 135 40 L 135 330" fill="none" stroke="rgb(0, 0, 0)" stroke-miterlimit="10" stroke-dasharray="3 3" pointer-events="stroke"/><path d="M 135 40 L 195 330" fill="none" stroke="rgb(0, 0, 0)" stroke-miterlimit="10" stroke-dasharray="3 3" pointer-events="stroke"/><path d="M 135 40 L 252 330" fill="none" stroke="rgb(0, 0, 0)" stroke-miterlimit="10" stroke-dasharray="3 3" pointer-events="stroke"/><ellipse cx="135" cy="25" rx="15" ry="15" fill="#ffe6cc" stroke="#d79b00" pointer-events="all"/><path d="M 195 40 L 15 330" fill="none" stroke="rgb(0, 0, 0)" stroke-miterlimit="10" stroke-dasharray="3 3" pointer-events="stroke"/><path d="M 195 40 L 75 330" fill="none" stroke="rgb(0, 0, 0)" stroke-miterlimit="10" stroke-dasharray="3 3" pointer-events="stroke"/><path d="M 195 40 L 135 330" fill="none" stroke="rgb(0, 0, 0)" stroke-miterlimit="10" stroke-dasharray="3 3" pointer-events="stroke"/><path d="M 195 40 L 195 330" fill="none" stroke="rgb(0, 0, 0)" stroke-miterlimit="10" stroke-dasharray="3 3" pointer-events="stroke"/><path d="M 195 40 L 255 330" fill="none" stroke="rgb(0, 0, 0)" stroke-miterlimit="10" stroke-dasharray="3 3" pointer-events="stroke"/><ellipse cx="195" cy="25" rx="15" ry="15" fill="#ffe6cc" stroke="#d79b00" pointer-events="all"/><ellipse cx="255" cy="25" rx="15" ry="15" fill="#ffe6cc" stroke="#d79b00" pointer-events="all"/><path d="M 75 330 L 15 40" fill="none" stroke="rgb(0, 0, 0)" stroke-miterlimit="10" stroke-dasharray="3 3" pointer-events="stroke"/><path d="M 75 330 L 75 40" fill="none" stroke="rgb(0, 0, 0)" stroke-miterlimit="10" stroke-dasharray="3 3" pointer-events="stroke"/><path d="M 75 330 L 251.64 45.41" fill="none" stroke="rgb(0, 0, 0)" stroke-miterlimit="10" pointer-events="stroke"/><path d="M 254.41 40.95 L 253.69 48.74 L 251.64 45.41 L 247.75 45.05 Z" fill="rgb(0, 0, 0)" stroke="rgb(0, 0, 0)" stroke-miterlimit="10" pointer-events="all"/><ellipse cx="75" cy="345" rx="15" ry="15" fill="#dae8fc" stroke="#6c8ebf" pointer-events="all"/><path d="M 135 330 L 15 40" fill="none" stroke="rgb(0, 0, 0)" stroke-miterlimit="10" stroke-dasharray="3 3" pointer-events="stroke"/><path d="M 135 330 L 72 40" fill="none" stroke="rgb(0, 0, 0)" stroke-miterlimit="10" stroke-dasharray="3 3" pointer-events="stroke"/><path d="M 135 330 L 252.57 45.88" fill="none" stroke="rgb(0, 0, 0)" stroke-miterlimit="10" pointer-events="stroke"/><path d="M 254.57 41.03 L 255.13 48.84 L 252.57 45.88 L 248.66 46.16 Z" fill="rgb(0, 0, 0)" stroke="rgb(0, 0, 0)" stroke-miterlimit="10" pointer-events="all"/><ellipse cx="135" cy="345" rx="15" ry="15" fill="#dae8fc" stroke="#6c8ebf" pointer-events="all"/><path d="M 195 330 L 15 40" fill="none" stroke="rgb(0, 0, 0)" stroke-miterlimit="10" stroke-dasharray="3 3" pointer-events="stroke"/><path d="M 195 330 L 75 40" fill="none" stroke="rgb(0, 0, 0)" stroke-miterlimit="10" stroke-dasharray="3 3" pointer-events="stroke"/><path d="M 195 330 L 253.71 46.24" fill="none" stroke="rgb(0, 0, 0)" stroke-miterlimit="10" pointer-events="stroke"/><path d="M 254.77 41.09 L 256.78 48.66 L 253.71 46.24 L 249.93 47.24 Z" fill="rgb(0, 0, 0)" stroke="rgb(0, 0, 0)" stroke-miterlimit="10" pointer-events="all"/><ellipse cx="195" cy="345" rx="15" ry="15" fill="#dae8fc" stroke="#6c8ebf" pointer-events="all"/><path d="M 255 330 L 15 40" fill="none" stroke="rgb(0, 0, 0)" stroke-miterlimit="10" stroke-dasharray="3 3" pointer-events="stroke"/><path d="M 255 330 L 75 40" fill="none" stroke="rgb(0, 0, 0)" stroke-miterlimit="10" stroke-dasharray="3 3" pointer-events="stroke"/><path d="M 255 330 L 255 46.37" fill="none" stroke="rgb(0, 0, 0)" stroke-miterlimit="10" pointer-events="stroke"/><path d="M 255 41.12 L 258.5 48.12 L 255 46.37 L 251.5 48.12 Z" fill="rgb(0, 0, 0)" stroke="rgb(0, 0, 0)" stroke-miterlimit="10" pointer-events="all"/><ellipse cx="255" cy="345" rx="15" ry="15" fill="#dae8fc" stroke="#6c8ebf" pointer-events="all"/><path d="M 302 410 L 302 0" fill="none" stroke="rgb(0, 0, 0)" stroke-miterlimit="10" stroke-dasharray="3 3" pointer-events="stroke"/></g></svg>