<svg xmlns="http://www.w3.org/2000/svg" xmlns:xlink="http://www.w3.org/1999/xlink" version="1.1" width="881px" height="401px" viewBox="-0.5 -0.5 881 401"><defs/><g><rect x="35" y="40" width="50" height="30" fill="none" stroke="none" pointer-events="all"/><g fill="rgb(0, 0, 0)" font-family="Times New Roman" text-anchor="middle" font-size="18px"><text x="59.5" y="62.5">M=2</text></g><rect x="20" y="75" width="40" height="40" fill="#dae8fc" stroke="#6c8ebf" pointer-events="all"/><rect x="60" y="75" width="40" height="40" fill="#ffe6cc" stroke="#d79b00" pointer-events="all"/><rect x="20" y="115" width="40" height="40" fill="#e1d5e7" stroke="#9673a6" pointer-events="all"/><rect x="60" y="115" width="40" height="40" fill="#f5f5f5" stroke="#666666" pointer-events="all"/><rect x="20" y="195" width="40" height="40" fill="rgb(255, 255, 255)" stroke="rgb(0, 0, 0)" pointer-events="all"/><g fill="rgb(0, 0, 0)" font-family="Times New Roman" text-anchor="middle" font-size="18px"><text x="39.5" y="222.5">0,0</text></g><rect x="60" y="195" width="40" height="40" fill="rgb(255, 255, 255)" stroke="rgb(0, 0, 0)" pointer-events="all"/><g fill="rgb(0, 0, 0)" font-family="Times New Roman" text-anchor="middle" font-size="18px"><text x="79.5" y="222.5">0,1</text></g><rect x="20" y="235" width="40" height="40" fill="rgb(255, 255, 255)" stroke="rgb(0, 0, 0)" pointer-events="all"/><g fill="rgb(0, 0, 0)" font-family="Times New Roman" text-anchor="middle" font-size="18px"><text x="39.5" y="262.5">1,0</text></g><rect x="60" y="235" width="40" height="40" fill="rgb(255, 255, 255)" stroke="rgb(0, 0, 0)" pointer-events="all"/><g fill="rgb(0, 0, 0)" font-family="Times New Roman" text-anchor="middle" font-size="18px"><text x="79.5" y="262.5">1,1</text></g><path d="M 60 161 L 60 184.63" fill="none" stroke="rgb(0, 0, 0)" stroke-miterlimit="10" pointer-events="stroke"/><path d="M 60 189.88 L 56.5 182.88 L 60 184.63 L 63.5 182.88 Z" fill="rgb(0, 0, 0)" stroke="rgb(0, 0, 0)" stroke-miterlimit="10" pointer-events="all"/><rect x="0" y="280" width="120" height="30" fill="none" stroke="none" pointer-events="all"/><g fill="#1A1A1A" font-family="宋体" text-anchor="middle" font-size="18px"><text x="59.5" y="302.5">绝对位置索引</text></g><rect x="130" y="35" width="40" height="40" fill="#dae8fc" stroke="#6c8ebf" pointer-events="all"/><g fill="rgb(0, 0, 0)" font-family="Times New Roman" text-anchor="middle" font-size="18px"><text x="149.5" y="62.5">0,0</text></g><rect x="170" y="35" width="40" height="40" fill="rgb(255, 255, 255)" stroke="rgb(0, 0, 0)" pointer-events="all"/><g fill="rgb(0, 0, 0)" font-family="Times New Roman" text-anchor="middle" font-size="18px"><text x="189.5" y="62.5">0,-1</text></g><rect x="130" y="75" width="40" height="40" fill="rgb(255, 255, 255)" stroke="rgb(0, 0, 0)" pointer-events="all"/><g fill="rgb(0, 0, 0)" font-family="Times New Roman" text-anchor="middle" font-size="18px"><text x="149.5" y="102.5">-1,0</text></g><path d="M 170 115 L 241.56 142.7" fill="none" stroke="rgb(0, 0, 0)" stroke-miterlimit="10" pointer-events="stroke"/><path d="M 246.46 144.6 L 238.67 145.33 L 241.56 142.7 L 241.19 138.81 Z" fill="rgb(0, 0, 0)" stroke="rgb(0, 0, 0)" stroke-miterlimit="10" pointer-events="all"/><rect x="170" y="75" width="40" height="40" fill="rgb(255, 255, 255)" stroke="rgb(0, 0, 0)" pointer-events="all"/><g fill="rgb(0, 0, 0)" font-family="Times New Roman" text-anchor="middle" font-size="18px"><text x="189.5" y="102.5">-1,-1</text></g><rect x="230" y="35" width="40" height="40" fill="rgb(255, 255, 255)" stroke="rgb(0, 0, 0)" pointer-events="all"/><g fill="rgb(0, 0, 0)" font-family="Times New Roman" text-anchor="middle" font-size="18px"><text x="249.5" y="62.5">0,1</text></g><rect x="270" y="35" width="40" height="40" fill="#ffe6cc" stroke="#d79b00" pointer-events="all"/><g fill="rgb(0, 0, 0)" font-family="Times New Roman" text-anchor="middle" font-size="18px"><text x="289.5" y="62.5">0,0</text></g><rect x="230" y="75" width="40" height="40" fill="rgb(255, 255, 255)" stroke="rgb(0, 0, 0)" pointer-events="all"/><g fill="rgb(0, 0, 0)" font-family="Times New Roman" text-anchor="middle" font-size="18px"><text x="249.5" y="102.5">-1,1</text></g><path d="M 270 115 L 270.1 139.62" fill="none" stroke="rgb(0, 0, 0)" stroke-miterlimit="10" pointer-events="stroke"/><path d="M 270.12 144.87 L 266.59 137.89 L 270.1 139.62 L 273.59 137.86 Z" fill="rgb(0, 0, 0)" stroke="rgb(0, 0, 0)" stroke-miterlimit="10" pointer-events="all"/><rect x="270" y="75" width="40" height="40" fill="rgb(255, 255, 255)" stroke="rgb(0, 0, 0)" pointer-events="all"/><g fill="rgb(0, 0, 0)" font-family="Times New Roman" text-anchor="middle" font-size="18px"><text x="289.5" y="102.5">-1,0</text></g><rect x="330" y="35" width="40" height="40" fill="rgb(255, 255, 255)" stroke="rgb(0, 0, 0)" pointer-events="all"/><g fill="rgb(0, 0, 0)" font-family="Times New Roman" text-anchor="middle" font-size="18px"><text x="349.5" y="62.5">1,0</text></g><rect x="370" y="35" width="40" height="40" fill="rgb(255, 255, 255)" stroke="rgb(0, 0, 0)" pointer-events="all"/><g fill="rgb(0, 0, 0)" font-family="Times New Roman" text-anchor="middle" font-size="18px"><text x="389.5" y="62.5">1,-1</text></g><rect x="330" y="75" width="40" height="40" fill="#e1d5e7" stroke="#9673a6" pointer-events="all"/><g fill="rgb(0, 0, 0)" font-family="Times New Roman" text-anchor="middle" font-size="18px"><text x="349.5" y="102.5">0,0</text></g><path d="M 370 115 L 369.9 140.64" fill="none" stroke="rgb(0, 0, 0)" stroke-miterlimit="10" pointer-events="stroke"/><path d="M 369.88 145.89 L 366.41 138.88 L 369.9 140.64 L 373.41 138.91 Z" fill="rgb(0, 0, 0)" stroke="rgb(0, 0, 0)" stroke-miterlimit="10" pointer-events="all"/><rect x="370" y="75" width="40" height="40" fill="rgb(255, 255, 255)" stroke="rgb(0, 0, 0)" pointer-events="all"/><g fill="rgb(0, 0, 0)" font-family="Times New Roman" text-anchor="middle" font-size="18px"><text x="389.5" y="102.5">0,-1</text></g><rect x="430" y="35" width="40" height="40" fill="rgb(255, 255, 255)" stroke="rgb(0, 0, 0)" pointer-events="all"/><g fill="rgb(0, 0, 0)" font-family="Times New Roman" text-anchor="middle" font-size="18px"><text x="449.5" y="62.5">1,1</text></g><rect x="470" y="35" width="40" height="40" fill="rgb(255, 255, 255)" stroke="rgb(0, 0, 0)" pointer-events="all"/><g fill="rgb(0, 0, 0)" font-family="Times New Roman" text-anchor="middle" font-size="18px"><text x="489.5" y="62.5">1,0</text></g><rect x="430" y="75" width="40" height="40" fill="rgb(255, 255, 255)" stroke="rgb(0, 0, 0)" pointer-events="all"/><g fill="rgb(0, 0, 0)" font-family="Times New Roman" text-anchor="middle" font-size="18px"><text x="449.5" y="102.5">0,1</text></g><path d="M 470 115 L 398.44 142.7" fill="none" stroke="rgb(0, 0, 0)" stroke-miterlimit="10" pointer-events="stroke"/><path d="M 393.54 144.6 L 398.81 138.81 L 398.44 142.7 L 401.33 145.33 Z" fill="rgb(0, 0, 0)" stroke="rgb(0, 0, 0)" stroke-miterlimit="10" pointer-events="all"/><rect x="470" y="75" width="40" height="40" fill="#f5f5f5" stroke="#666666" pointer-events="all"/><g fill="#333333" font-family="Times New Roman" text-anchor="middle" font-size="18px"><text x="489.5" y="102.5">0,0</text></g><rect x="175" y="0" width="290" height="30" fill="none" stroke="none" pointer-events="all"/><g fill="#1A1A1A" font-family="宋体" text-anchor="middle" font-size="18px"><text x="319.5" y="22.5">各像素与其他像素的相对位置索引</text></g><path d="M 320 175 L 320 198.63" fill="none" stroke="rgb(0, 0, 0)" stroke-miterlimit="10" pointer-events="stroke"/><path d="M 320 203.88 L 316.5 196.88 L 320 198.63 L 323.5 196.88 Z" fill="rgb(0, 0, 0)" stroke="rgb(0, 0, 0)" stroke-miterlimit="10" pointer-events="all"/><rect x="175" y="145" width="290" height="30" rx="4.5" ry="4.5" fill="rgb(255, 255, 255)" stroke="rgb(0, 0, 0)" pointer-events="all"/><g fill="#1A1A1A" font-family="宋体" text-anchor="middle" font-size="18px"><text x="319.5" y="167.5">按行方向展开</text></g><rect x="280" y="205" width="40" height="40" fill="rgb(255, 255, 255)" stroke="rgb(0, 0, 0)" pointer-events="all"/><g fill="rgb(0, 0, 0)" font-family="Times New Roman" text-anchor="middle" font-size="18px"><text x="299.5" y="232.5">0,-1</text></g><rect x="240" y="245" width="40" height="40" fill="rgb(255, 255, 255)" stroke="rgb(0, 0, 0)" pointer-events="all"/><g fill="rgb(0, 0, 0)" font-family="Times New Roman" text-anchor="middle" font-size="18px"><text x="259.5" y="272.5">0,1</text></g><rect x="320" y="205" width="40" height="40" fill="rgb(255, 255, 255)" stroke="rgb(0, 0, 0)" pointer-events="all"/><g fill="rgb(0, 0, 0)" font-family="Times New Roman" text-anchor="middle" font-size="18px"><text x="339.5" y="232.5">-1,0</text></g><rect x="360" y="205" width="40" height="40" fill="rgb(255, 255, 255)" stroke="rgb(0, 0, 0)" pointer-events="all"/><g fill="rgb(0, 0, 0)" font-family="Times New Roman" text-anchor="middle" font-size="18px"><text x="379.5" y="232.5">-1,-1</text></g><rect x="320" y="245" width="40" height="40" fill="rgb(255, 255, 255)" stroke="rgb(0, 0, 0)" pointer-events="all"/><g fill="rgb(0, 0, 0)" font-family="Times New Roman" text-anchor="middle" font-size="18px"><text x="339.5" y="272.5">-1,1</text></g><rect x="360" y="245" width="40" height="40" fill="rgb(255, 255, 255)" stroke="rgb(0, 0, 0)" pointer-events="all"/><g fill="rgb(0, 0, 0)" font-family="Times New Roman" text-anchor="middle" font-size="18px"><text x="379.5" y="272.5">-1,0</text></g><rect x="240" y="285" width="40" height="40" fill="rgb(255, 255, 255)" stroke="rgb(0, 0, 0)" pointer-events="all"/><g fill="rgb(0, 0, 0)" font-family="Times New Roman" text-anchor="middle" font-size="18px"><text x="259.5" y="312.5">1,0</text></g><rect x="280" y="285" width="40" height="40" fill="rgb(255, 255, 255)" stroke="rgb(0, 0, 0)" pointer-events="all"/><g fill="rgb(0, 0, 0)" font-family="Times New Roman" text-anchor="middle" font-size="18px"><text x="299.5" y="312.5">1,-1</text></g><rect x="240" y="325" width="40" height="40" fill="rgb(255, 255, 255)" stroke="rgb(0, 0, 0)" pointer-events="all"/><g fill="rgb(0, 0, 0)" font-family="Times New Roman" text-anchor="middle" font-size="18px"><text x="259.5" y="352.5">1,1</text></g><rect x="280" y="325" width="40" height="40" fill="rgb(255, 255, 255)" stroke="rgb(0, 0, 0)" pointer-events="all"/><g fill="rgb(0, 0, 0)" font-family="Times New Roman" text-anchor="middle" font-size="18px"><text x="299.5" y="352.5">1,0</text></g><rect x="360" y="285" width="40" height="40" fill="rgb(255, 255, 255)" stroke="rgb(0, 0, 0)" pointer-events="all"/><g fill="rgb(0, 0, 0)" font-family="Times New Roman" text-anchor="middle" font-size="18px"><text x="379.5" y="312.5">0,-1</text></g><rect x="320" y="325" width="40" height="40" fill="rgb(255, 255, 255)" stroke="rgb(0, 0, 0)" pointer-events="all"/><g fill="rgb(0, 0, 0)" font-family="Times New Roman" text-anchor="middle" font-size="18px"><text x="339.5" y="352.5">0,1</text></g><rect x="240" y="205" width="40" height="40" fill="#dae8fc" stroke="#6c8ebf" pointer-events="all"/><g fill="rgb(0, 0, 0)" font-family="Times New Roman" text-anchor="middle" font-size="18px"><text x="259.5" y="232.5">0,0</text></g><rect x="280" y="245" width="40" height="40" fill="#ffe6cc" stroke="#d79b00" pointer-events="all"/><g fill="rgb(0, 0, 0)" font-family="Times New Roman" text-anchor="middle" font-size="18px"><text x="299.5" y="272.5">0,0</text></g><rect x="320" y="285" width="40" height="40" fill="#e1d5e7" stroke="#9673a6" pointer-events="all"/><g fill="rgb(0, 0, 0)" font-family="Times New Roman" text-anchor="middle" font-size="18px"><text x="339.5" y="312.5">0,0</text></g><rect x="360" y="325" width="40" height="40" fill="#f5f5f5" stroke="#666666" pointer-events="all"/><g fill="#333333" font-family="Times New Roman" text-anchor="middle" font-size="18px"><text x="379.5" y="352.5">0,0</text></g><rect x="260" y="370" width="120" height="30" fill="none" stroke="none" pointer-events="all"/><g fill="#1A1A1A" font-family="宋体" text-anchor="middle" font-size="18px"><text x="319.5" y="392.5">相对位置矩阵</text></g><path d="M 410 285 L 510.39 285" fill="none" stroke="rgb(0, 0, 0)" stroke-miterlimit="10" pointer-events="stroke"/><path d="M 515.64 285 L 508.64 288.5 L 510.39 285 L 508.64 281.5 Z" fill="rgb(0, 0, 0)" stroke="rgb(0, 0, 0)" stroke-miterlimit="10" pointer-events="all"/><rect x="400" y="255" width="120" height="30" fill="none" stroke="none" pointer-events="all"/><g fill="#1A1A1A" font-family="宋体" text-anchor="middle" font-size="18px"><text x="459.5" y="277.5">2维转化维1维</text></g><rect x="560" y="205" width="40" height="40" fill="rgb(255, 255, 255)" stroke="rgb(0, 0, 0)" pointer-events="all"/><g fill="rgb(0, 0, 0)" font-family="宋体" text-anchor="middle" font-size="18px"><text x="579.5" y="232.5">3</text></g><rect x="520" y="245" width="40" height="40" fill="rgb(255, 255, 255)" stroke="rgb(0, 0, 0)" pointer-events="all"/><g fill="rgb(0, 0, 0)" font-family="宋体" text-anchor="middle" font-size="18px"><text x="539.5" y="272.5">5</text></g><rect x="600" y="205" width="40" height="40" fill="rgb(255, 255, 255)" stroke="rgb(0, 0, 0)" pointer-events="all"/><g fill="rgb(0, 0, 0)" font-family="宋体" text-anchor="middle" font-size="18px"><text x="619.5" y="232.5">1</text></g><rect x="640" y="205" width="40" height="40" fill="rgb(255, 255, 255)" stroke="rgb(0, 0, 0)" pointer-events="all"/><g fill="rgb(0, 0, 0)" font-family="宋体" text-anchor="middle" font-size="18px"><text x="659.5" y="232.5">0</text></g><rect x="600" y="245" width="40" height="40" fill="rgb(255, 255, 255)" stroke="rgb(0, 0, 0)" pointer-events="all"/><g fill="rgb(0, 0, 0)" font-family="宋体" text-anchor="middle" font-size="18px"><text x="619.5" y="272.5">2</text></g><rect x="640" y="245" width="40" height="40" fill="rgb(255, 255, 255)" stroke="rgb(0, 0, 0)" pointer-events="all"/><g fill="rgb(0, 0, 0)" font-family="宋体" text-anchor="middle" font-size="18px"><text x="659.5" y="272.5">1</text></g><rect x="520" y="285" width="40" height="40" fill="rgb(255, 255, 255)" stroke="rgb(0, 0, 0)" pointer-events="all"/><g fill="rgb(0, 0, 0)" font-family="宋体" text-anchor="middle" font-size="18px"><text x="539.5" y="312.5">7</text></g><rect x="560" y="285" width="40" height="40" fill="rgb(255, 255, 255)" stroke="rgb(0, 0, 0)" pointer-events="all"/><g fill="rgb(0, 0, 0)" font-family="宋体" text-anchor="middle" font-size="18px"><text x="579.5" y="312.5">6</text></g><rect x="520" y="325" width="40" height="40" fill="rgb(255, 255, 255)" stroke="rgb(0, 0, 0)" pointer-events="all"/><g fill="rgb(0, 0, 0)" font-family="宋体" text-anchor="middle" font-size="18px"><text x="539.5" y="352.5">8</text></g><rect x="560" y="325" width="40" height="40" fill="rgb(255, 255, 255)" stroke="rgb(0, 0, 0)" pointer-events="all"/><g fill="rgb(0, 0, 0)" font-family="宋体" text-anchor="middle" font-size="18px"><text x="579.5" y="352.5">7</text></g><rect x="640" y="285" width="40" height="40" fill="rgb(255, 255, 255)" stroke="rgb(0, 0, 0)" pointer-events="all"/><g fill="rgb(0, 0, 0)" font-family="宋体" text-anchor="middle" font-size="18px"><text x="659.5" y="312.5">3</text></g><rect x="600" y="325" width="40" height="40" fill="rgb(255, 255, 255)" stroke="rgb(0, 0, 0)" pointer-events="all"/><g fill="rgb(0, 0, 0)" font-family="宋体" text-anchor="middle" font-size="18px"><text x="619.5" y="352.5">5</text></g><rect x="520" y="205" width="40" height="40" fill="#dae8fc" stroke="#6c8ebf" pointer-events="all"/><g fill="rgb(0, 0, 0)" font-family="宋体" text-anchor="middle" font-size="18px"><text x="539.5" y="232.5">4</text></g><rect x="560" y="245" width="40" height="40" fill="#ffe6cc" stroke="#d79b00" pointer-events="all"/><g fill="rgb(0, 0, 0)" font-family="宋体" text-anchor="middle" font-size="18px"><text x="579.5" y="272.5">4</text></g><rect x="600" y="285" width="40" height="40" fill="#e1d5e7" stroke="#9673a6" pointer-events="all"/><g fill="rgb(0, 0, 0)" font-family="宋体" text-anchor="middle" font-size="18px"><text x="619.5" y="312.5">4</text></g><rect x="640" y="325" width="40" height="40" fill="#f5f5f5" stroke="#666666" pointer-events="all"/><g fill="#333333" font-family="宋体" text-anchor="middle" font-size="18px"><text x="659.5" y="352.5">4</text></g><rect x="545" y="370" width="120" height="30" fill="none" stroke="none" pointer-events="all"/><g fill="#1A1A1A" font-family="宋体" text-anchor="middle" font-size="18px"><text x="604.5" y="392.5">相对位置索引</text></g><rect x="570" y="10" width="270" height="30" fill="none" stroke="none" pointer-events="all"/><g fill="#1A1A1A" font-family="宋体" text-anchor="middle" font-size="18px"><text x="704.5" y="32.5">相对位置索引表（2M-1×2M-1）</text></g><rect x="625" y="60" width="30" height="30" fill="rgb(255, 255, 255)" stroke="rgb(0, 0, 0)" pointer-events="all"/><g fill="rgb(0, 0, 0)" font-family="宋体" text-anchor="middle" font-size="18px"><text x="639.5" y="82.5">c</text></g><rect x="630" y="35" width="20" height="30" fill="none" stroke="none" pointer-events="all"/><g fill="#1A1A1A" font-family="宋体" text-anchor="middle" font-size="18px"><text x="639.5" y="57.5">2</text></g><rect x="655" y="60" width="30" height="30" fill="rgb(255, 255, 255)" stroke="rgb(0, 0, 0)" pointer-events="all"/><g fill="rgb(0, 0, 0)" font-family="宋体" text-anchor="middle" font-size="18px"><text x="669.5" y="82.5">d</text></g><rect x="660" y="35" width="20" height="30" fill="none" stroke="none" pointer-events="all"/><g fill="#1A1A1A" font-family="宋体" text-anchor="middle" font-size="18px"><text x="669.5" y="57.5">3</text></g><rect x="685" y="60" width="30" height="30" fill="rgb(255, 255, 255)" stroke="rgb(0, 0, 0)" pointer-events="all"/><g fill="rgb(0, 0, 0)" font-family="宋体" text-anchor="middle" font-size="18px"><text x="699.5" y="82.5">e</text></g><rect x="690" y="35" width="20" height="30" fill="none" stroke="none" pointer-events="all"/><g fill="#1A1A1A" font-family="宋体" text-anchor="middle" font-size="18px"><text x="699.5" y="57.5">4</text></g><rect x="715" y="60" width="30" height="30" fill="rgb(255, 255, 255)" stroke="rgb(0, 0, 0)" pointer-events="all"/><g fill="rgb(0, 0, 0)" font-family="宋体" text-anchor="middle" font-size="18px"><text x="729.5" y="82.5">f</text></g><rect x="720" y="35" width="20" height="30" fill="none" stroke="none" pointer-events="all"/><g fill="#1A1A1A" font-family="宋体" text-anchor="middle" font-size="18px"><text x="729.5" y="57.5">5</text></g><rect x="745" y="60" width="30" height="30" fill="rgb(255, 255, 255)" stroke="rgb(0, 0, 0)" pointer-events="all"/><g fill="rgb(0, 0, 0)" font-family="宋体" text-anchor="middle" font-size="18px"><text x="759.5" y="82.5">g</text></g><rect x="750" y="35" width="20" height="30" fill="none" stroke="none" pointer-events="all"/><g fill="#1A1A1A" font-family="宋体" text-anchor="middle" font-size="18px"><text x="759.5" y="57.5">6</text></g><rect x="775" y="60" width="30" height="30" fill="rgb(255, 255, 255)" stroke="rgb(0, 0, 0)" pointer-events="all"/><g fill="rgb(0, 0, 0)" font-family="宋体" text-anchor="middle" font-size="18px"><text x="789.5" y="82.5">h</text></g><rect x="780" y="35" width="20" height="30" fill="none" stroke="none" pointer-events="all"/><g fill="#1A1A1A" font-family="宋体" text-anchor="middle" font-size="18px"><text x="789.5" y="57.5">7</text></g><rect x="805" y="60" width="30" height="30" fill="rgb(255, 255, 255)" stroke="rgb(0, 0, 0)" pointer-events="all"/><g fill="rgb(0, 0, 0)" font-family="宋体" text-anchor="middle" font-size="18px"><text x="819.5" y="82.5">i</text></g><rect x="810" y="35" width="20" height="30" fill="none" stroke="none" pointer-events="all"/><g fill="#1A1A1A" font-family="宋体" text-anchor="middle" font-size="18px"><text x="819.5" y="57.5">8</text></g><rect x="595" y="60" width="30" height="30" fill="rgb(255, 255, 255)" stroke="rgb(0, 0, 0)" pointer-events="all"/><g fill="rgb(0, 0, 0)" font-family="宋体" text-anchor="middle" font-size="18px"><text x="609.5" y="82.5">b</text></g><rect x="600" y="35" width="20" height="30" fill="none" stroke="none" pointer-events="all"/><g fill="#1A1A1A" font-family="宋体" text-anchor="middle" font-size="18px"><text x="609.5" y="57.5">1</text></g><rect x="565" y="60" width="30" height="30" fill="rgb(255, 255, 255)" stroke="rgb(0, 0, 0)" pointer-events="all"/><g fill="rgb(0, 0, 0)" font-family="宋体" text-anchor="middle" font-size="18px"><text x="579.5" y="82.5">a</text></g><rect x="570" y="35" width="20" height="30" fill="none" stroke="none" pointer-events="all"/><g fill="#1A1A1A" font-family="宋体" text-anchor="middle" font-size="18px"><text x="579.5" y="57.5">0</text></g><rect x="740" y="370" width="120" height="30" fill="none" stroke="none" pointer-events="all"/><g fill="#1A1A1A" font-family="宋体" text-anchor="middle" font-size="18px"><text x="799.5" y="392.5">相对位置偏置</text></g><path d="M 780 105 L 793.83 178.74" fill="none" stroke="rgb(0, 0, 0)" stroke-miterlimit="10" pointer-events="stroke"/><path d="M 794.79 183.9 L 790.06 177.67 L 793.83 178.74 L 796.94 176.38 Z" fill="rgb(0, 0, 0)" stroke="rgb(0, 0, 0)" stroke-miterlimit="10" pointer-events="all"/><rect x="760" y="205" width="40" height="40" fill="rgb(255, 255, 255)" stroke="rgb(0, 0, 0)" pointer-events="all"/><g fill="rgb(0, 0, 0)" font-family="宋体" text-anchor="middle" font-size="18px"><text x="779.5" y="232.5">d</text></g><rect x="720" y="245" width="40" height="40" fill="rgb(255, 255, 255)" stroke="rgb(0, 0, 0)" pointer-events="all"/><g fill="rgb(0, 0, 0)" font-family="宋体" text-anchor="middle" font-size="18px"><text x="739.5" y="272.5">f</text></g><rect x="800" y="205" width="40" height="40" fill="rgb(255, 255, 255)" stroke="rgb(0, 0, 0)" pointer-events="all"/><g fill="rgb(0, 0, 0)" font-family="宋体" text-anchor="middle" font-size="18px"><text x="819.5" y="232.5">b</text></g><rect x="840" y="205" width="40" height="40" fill="rgb(255, 255, 255)" stroke="rgb(0, 0, 0)" pointer-events="all"/><g fill="rgb(0, 0, 0)" font-family="宋体" text-anchor="middle" font-size="18px"><text x="859.5" y="232.5">a</text></g><rect x="800" y="245" width="40" height="40" fill="rgb(255, 255, 255)" stroke="rgb(0, 0, 0)" pointer-events="all"/><g fill="rgb(0, 0, 0)" font-family="宋体" text-anchor="middle" font-size="18px"><text x="819.5" y="272.5">c</text></g><rect x="840" y="245" width="40" height="40" fill="rgb(255, 255, 255)" stroke="rgb(0, 0, 0)" pointer-events="all"/><g fill="rgb(0, 0, 0)" font-family="宋体" text-anchor="middle" font-size="18px"><text x="859.5" y="272.5">b</text></g><rect x="720" y="285" width="40" height="40" fill="rgb(255, 255, 255)" stroke="rgb(0, 0, 0)" pointer-events="all"/><g fill="rgb(0, 0, 0)" font-family="宋体" text-anchor="middle" font-size="18px"><text x="739.5" y="312.5">h</text></g><rect x="760" y="285" width="40" height="40" fill="rgb(255, 255, 255)" stroke="rgb(0, 0, 0)" pointer-events="all"/><g fill="rgb(0, 0, 0)" font-family="宋体" text-anchor="middle" font-size="18px"><text x="779.5" y="312.5">g</text></g><rect x="720" y="325" width="40" height="40" fill="rgb(255, 255, 255)" stroke="rgb(0, 0, 0)" pointer-events="all"/><g fill="rgb(0, 0, 0)" font-family="宋体" text-anchor="middle" font-size="18px"><text x="739.5" y="352.5">i</text></g><rect x="760" y="325" width="40" height="40" fill="rgb(255, 255, 255)" stroke="rgb(0, 0, 0)" pointer-events="all"/><g fill="rgb(0, 0, 0)" font-family="宋体" text-anchor="middle" font-size="18px"><text x="779.5" y="352.5">h</text></g><rect x="840" y="285" width="40" height="40" fill="rgb(255, 255, 255)" stroke="rgb(0, 0, 0)" pointer-events="all"/><g fill="rgb(0, 0, 0)" font-family="宋体" text-anchor="middle" font-size="18px"><text x="859.5" y="312.5">d</text></g><rect x="800" y="325" width="40" height="40" fill="rgb(255, 255, 255)" stroke="rgb(0, 0, 0)" pointer-events="all"/><g fill="rgb(0, 0, 0)" font-family="宋体" text-anchor="middle" font-size="18px"><text x="819.5" y="352.5">f</text></g><rect x="720" y="205" width="40" height="40" fill="#dae8fc" stroke="#6c8ebf" pointer-events="all"/><g fill="rgb(0, 0, 0)" font-family="宋体" text-anchor="middle" font-size="18px"><text x="739.5" y="232.5">e</text></g><rect x="760" y="245" width="40" height="40" fill="#ffe6cc" stroke="#d79b00" pointer-events="all"/><g fill="rgb(0, 0, 0)" font-family="宋体" text-anchor="middle" font-size="18px"><text x="779.5" y="272.5">e</text></g><rect x="800" y="285" width="40" height="40" fill="#e1d5e7" stroke="#9673a6" pointer-events="all"/><g fill="rgb(0, 0, 0)" font-family="宋体" text-anchor="middle" font-size="18px"><text x="819.5" y="312.5">e</text></g><rect x="840" y="325" width="40" height="40" fill="#f5f5f5" stroke="#666666" pointer-events="all"/><g fill="#333333" font-family="宋体" text-anchor="middle" font-size="18px"><text x="859.5" y="352.5">e</text></g><path d="M 600 185 L 618.46 111.18" fill="none" stroke="rgb(0, 0, 0)" stroke-miterlimit="10" pointer-events="stroke"/><path d="M 619.73 106.08 L 621.43 113.72 L 618.46 111.18 L 614.64 112.03 Z" fill="rgb(0, 0, 0)" stroke="rgb(0, 0, 0)" stroke-miterlimit="10" pointer-events="all"/><rect x="600" y="145" width="200" height="30" fill="none" stroke="none" pointer-events="all"/><g fill="#1A1A1A" font-family="宋体" text-anchor="middle" font-size="18px"><text x="699.5" y="167.5">按索引从索引表中取数</text></g></g></svg>