<svg xmlns="http://www.w3.org/2000/svg" xmlns:xlink="http://www.w3.org/1999/xlink" version="1.1" width="784px" height="370px" viewBox="-0.5 -0.5 784 370"><defs/><g><path d="M 350 145 L 350 166.5 L 290 166.5 L 290 181.63" fill="none" stroke="rgb(0, 0, 0)" stroke-miterlimit="10" pointer-events="stroke"/><path d="M 290 186.88 L 286.5 179.88 L 290 181.63 L 293.5 179.88 Z" fill="rgb(0, 0, 0)" stroke="rgb(0, 0, 0)" stroke-miterlimit="10" pointer-events="all"/><path d="M 350 145 L 350 181.63" fill="none" stroke="rgb(0, 0, 0)" stroke-miterlimit="10" pointer-events="stroke"/><path d="M 350 186.88 L 346.5 179.88 L 350 181.63 L 353.5 179.88 Z" fill="rgb(0, 0, 0)" stroke="rgb(0, 0, 0)" stroke-miterlimit="10" pointer-events="all"/><path d="M 350 145 L 350 166.5 L 410 166.5 L 410 181.63" fill="none" stroke="rgb(0, 0, 0)" stroke-miterlimit="10" pointer-events="stroke"/><path d="M 410 186.88 L 406.5 179.88 L 410 181.63 L 413.5 179.88 Z" fill="rgb(0, 0, 0)" stroke="rgb(0, 0, 0)" stroke-miterlimit="10" pointer-events="all"/><rect x="267" y="90" width="166" height="55" rx="8.25" ry="8.25" fill="rgb(255, 255, 255)" stroke="rgb(0, 0, 0)" pointer-events="all"/><g fill="rgb(0, 0, 0)" font-family="宋体" text-anchor="middle" font-size="18px"><text x="349.5" y="114">物理模型去雾算法</text><text x="349.5" y="136">(图像复原去雾算法)</text></g><path d="M 620 145 L 620 166.5 L 493 166.5 L 493 181.63" fill="none" stroke="rgb(0, 0, 0)" stroke-miterlimit="10" pointer-events="stroke"/><path d="M 493 186.88 L 489.5 179.88 L 493 181.63 L 496.5 179.88 Z" fill="rgb(0, 0, 0)" stroke="rgb(0, 0, 0)" stroke-miterlimit="10" pointer-events="all"/><path d="M 620 145 L 620 166.5 L 695.5 166.5 L 695.5 181.63" fill="none" stroke="rgb(0, 0, 0)" stroke-miterlimit="10" pointer-events="stroke"/><path d="M 695.5 186.88 L 692 179.88 L 695.5 181.63 L 699 179.88 Z" fill="rgb(0, 0, 0)" stroke="rgb(0, 0, 0)" stroke-miterlimit="10" pointer-events="all"/><path d="M 620 145 L 620 166.5 L 763 166.5 L 763 181.63" fill="none" stroke="rgb(0, 0, 0)" stroke-miterlimit="10" pointer-events="stroke"/><path d="M 763 186.88 L 759.5 179.88 L 763 181.63 L 766.5 179.88 Z" fill="rgb(0, 0, 0)" stroke="rgb(0, 0, 0)" stroke-miterlimit="10" pointer-events="all"/><path d="M 620 145 L 620 166.5 L 553 166.5 L 553 181.63" fill="none" stroke="rgb(0, 0, 0)" stroke-miterlimit="10" pointer-events="stroke"/><path d="M 553 186.88 L 549.5 179.88 L 553 181.63 L 556.5 179.88 Z" fill="rgb(0, 0, 0)" stroke="rgb(0, 0, 0)" stroke-miterlimit="10" pointer-events="all"/><path d="M 620 145 L 620 166.5 L 620.35 181.63" fill="none" stroke="rgb(0, 0, 0)" stroke-miterlimit="10" pointer-events="stroke"/><path d="M 620.47 186.88 L 616.81 179.97 L 620.35 181.63 L 623.81 179.8 Z" fill="rgb(0, 0, 0)" stroke="rgb(0, 0, 0)" stroke-miterlimit="10" pointer-events="all"/><rect x="537" y="90" width="166" height="55" rx="8.25" ry="8.25" fill="rgb(255, 255, 255)" stroke="rgb(0, 0, 0)" pointer-events="all"/><g fill="rgb(0, 0, 0)" font-family="宋体" text-anchor="middle" font-size="18px"><text x="619.5" y="125">深度学习去雾算法</text></g><path d="M 350 40 L 350 70 L 83 70 L 83 83.63" fill="none" stroke="rgb(0, 0, 0)" stroke-miterlimit="10" pointer-events="stroke"/><path d="M 83 88.88 L 79.5 81.88 L 83 83.63 L 86.5 81.88 Z" fill="rgb(0, 0, 0)" stroke="rgb(0, 0, 0)" stroke-miterlimit="10" pointer-events="all"/><path d="M 350 40 L 350 70 L 620 70 L 620 83.63" fill="none" stroke="rgb(0, 0, 0)" stroke-miterlimit="10" pointer-events="stroke"/><path d="M 620 88.88 L 616.5 81.88 L 620 83.63 L 623.5 81.88 Z" fill="rgb(0, 0, 0)" stroke="rgb(0, 0, 0)" stroke-miterlimit="10" pointer-events="all"/><path d="M 350 40 L 350 83.63" fill="none" stroke="rgb(0, 0, 0)" stroke-miterlimit="10" pointer-events="stroke"/><path d="M 350 88.88 L 346.5 81.88 L 350 83.63 L 353.5 81.88 Z" fill="rgb(0, 0, 0)" stroke="rgb(0, 0, 0)" stroke-miterlimit="10" pointer-events="all"/><rect x="290" y="0" width="120" height="40" rx="6" ry="6" fill="rgb(255, 255, 255)" stroke="rgb(0, 0, 0)" pointer-events="all"/><g fill="rgb(0, 0, 0)" font-family="宋体" text-anchor="middle" font-size="18px"><text x="349.5" y="27.5">图像去雾算法</text></g><rect x="270" y="188" width="40" height="180" rx="6" ry="6" fill="rgb(255, 255, 255)" stroke="rgb(0, 0, 0)" pointer-events="all"/><g fill="rgb(0, 0, 0)" font-family="宋体" text-anchor="middle" font-size="18px"><text x="289.5" y="230.5">大</text><text x="289.5" y="252.5">气</text><text x="289.5" y="274.5">退</text><text x="289.5" y="296.5">化</text><text x="289.5" y="318.5">模</text><text x="289.5" y="340.5">型</text></g><path d="M 83 145 L 83 182.63" fill="none" stroke="rgb(0, 0, 0)" stroke-miterlimit="10" pointer-events="stroke"/><path d="M 83 187.88 L 79.5 180.88 L 83 182.63 L 86.5 180.88 Z" fill="rgb(0, 0, 0)" stroke="rgb(0, 0, 0)" stroke-miterlimit="10" pointer-events="all"/><path d="M 83 145 L 83 166.5 L 140 166.5 L 140 181.63" fill="none" stroke="rgb(0, 0, 0)" stroke-miterlimit="10" pointer-events="stroke"/><path d="M 140 186.88 L 136.5 179.88 L 140 181.63 L 143.5 179.88 Z" fill="rgb(0, 0, 0)" stroke="rgb(0, 0, 0)" stroke-miterlimit="10" pointer-events="all"/><path d="M 83 145 L 83 166.5 L 30 166.5 L 30 181.63" fill="none" stroke="rgb(0, 0, 0)" stroke-miterlimit="10" pointer-events="stroke"/><path d="M 30 186.88 L 26.5 179.88 L 30 181.63 L 33.5 179.88 Z" fill="rgb(0, 0, 0)" stroke="rgb(0, 0, 0)" stroke-miterlimit="10" pointer-events="all"/><rect x="0" y="90" width="166" height="55" rx="8.25" ry="8.25" fill="rgb(255, 255, 255)" stroke="rgb(0, 0, 0)" pointer-events="all"/><g fill="rgb(0, 0, 0)" font-family="宋体" text-anchor="middle" font-size="18px"><text x="82.5" y="114">非物理模型去雾算法</text><text x="82.5" y="136">(图像增强去雾算法)</text></g><rect x="330" y="188" width="40" height="180" rx="6" ry="6" fill="rgb(255, 255, 255)" stroke="rgb(0, 0, 0)" pointer-events="all"/><g fill="rgb(0, 0, 0)" font-family="宋体" text-anchor="middle" font-size="18px"><text x="349.5" y="219.5">基</text><text x="349.5" y="241.5">于</text><text x="349.5" y="263.5">暗</text><text x="349.5" y="285.5">通</text><text x="349.5" y="307.5">道</text><text x="349.5" y="329.5">先</text><text x="349.5" y="351.5">验</text></g><rect x="390" y="188" width="40" height="180" rx="6" ry="6" fill="rgb(255, 255, 255)" stroke="rgb(0, 0, 0)" pointer-events="all"/><g fill="rgb(0, 0, 0)" font-family="宋体" text-anchor="middle" font-size="18px"><text x="409.5" y="219.5">偏</text><text x="409.5" y="241.5">微</text><text x="409.5" y="263.5">分</text><text x="409.5" y="285.5">方</text><text x="409.5" y="307.5">程</text><text x="409.5" y="329.5">去</text><text x="409.5" y="351.5">雾</text></g><rect x="10" y="188" width="40" height="180" rx="6" ry="6" fill="rgb(255, 255, 255)" stroke="rgb(0, 0, 0)" pointer-events="all"/><g fill="rgb(0, 0, 0)" font-family="宋体" text-anchor="middle" font-size="18px"><text x="29.5" y="208.5">全</text><text x="29.5" y="230.5">局</text><text x="29.5" y="252.5">直</text><text x="29.5" y="274.5">方</text><text x="29.5" y="296.5">图</text><text x="29.5" y="318.5">均</text><text x="29.5" y="340.5">衡</text><text x="29.5" y="362.5">化</text></g><rect x="63" y="189" width="40" height="180" rx="6" ry="6" fill="rgb(255, 255, 255)" stroke="rgb(0, 0, 0)" pointer-events="all"/><g fill="rgb(0, 0, 0)" font-family="宋体" text-anchor="middle" font-size="18px" transform="rotate(-270,83,279)"><text x="82.5" y="286.5">Retinex理论</text></g><rect x="120" y="188" width="40" height="180" rx="6" ry="6" fill="rgb(255, 255, 255)" stroke="rgb(0, 0, 0)" pointer-events="all"/><g fill="rgb(0, 0, 0)" font-family="宋体" text-anchor="middle" font-size="18px"><text x="139.5" y="219.5">小</text><text x="139.5" y="241.5">波</text><text x="139.5" y="263.5">和</text><text x="139.5" y="285.5">同</text><text x="139.5" y="307.5">态</text><text x="139.5" y="329.5">滤</text><text x="139.5" y="351.5">波</text></g><rect x="473" y="188" width="40" height="180" rx="6" ry="6" fill="rgb(255, 255, 255)" stroke="rgb(0, 0, 0)" transform="rotate(-180,493,278)" pointer-events="all"/><g fill="rgb(0, 0, 0)" font-family="宋体" text-anchor="middle" font-size="18px" transform="rotate(-270,493,278)"><text x="492.5" y="285.5">DehazeNet去雾算法</text></g><rect x="533" y="188" width="40" height="180" rx="6" ry="6" fill="rgb(255, 255, 255)" stroke="rgb(0, 0, 0)" transform="rotate(-180,553,278)" pointer-events="all"/><g fill="rgb(0, 0, 0)" font-family="宋体" text-anchor="middle" font-size="18px" transform="rotate(-270,553,278)"><text x="552.5" y="285.5">GCANet算法</text></g><rect x="593" y="188" width="55" height="180" rx="8.25" ry="8.25" fill="rgb(255, 255, 255)" stroke="rgb(0, 0, 0)" transform="rotate(-180,620.5,278)" pointer-events="all"/><g fill="rgb(0, 0, 0)" font-family="宋体" text-anchor="middle" font-size="18px" transform="rotate(-270,620.5,278)"><text x="620" y="274.5">基于生成对抗网络</text><text x="620" y="296.5">WGAN去雾算法</text></g><rect x="668" y="188" width="55" height="180" rx="8.25" ry="8.25" fill="rgb(255, 255, 255)" stroke="rgb(0, 0, 0)" transform="rotate(-180,695.5,278)" pointer-events="all"/><g fill="rgb(0, 0, 0)" font-family="宋体" text-anchor="middle" font-size="18px" transform="rotate(-270,695.5,278)"><text x="695" y="274.5">基于U-Net 的</text><text x="695" y="296.5">多尺度图像增强网络</text></g><rect x="743" y="188" width="40" height="180" rx="6" ry="6" fill="rgb(255, 255, 255)" stroke="rgb(0, 0, 0)" transform="rotate(-180,763,278)" pointer-events="all"/><g fill="rgb(0, 0, 0)" font-family="宋体" text-anchor="middle" font-size="18px" transform="rotate(-270,763,278)"><text x="762.5" y="285.5">FFA-Net去雾算法</text></g></g></svg>