<svg xmlns="http://www.w3.org/2000/svg" xmlns:xlink="http://www.w3.org/1999/xlink" version="1.1" width="912px" height="752px" viewBox="-0.5 -0.5 912 752"><defs/><g><rect x="69.5" y="111" width="170" height="120" fill="#ffb366" stroke="rgb(0, 0, 0)" pointer-events="all"/><rect x="77" y="121" width="155" height="60" rx="9" ry="9" fill="#ccff99" stroke="rgb(0, 0, 0)" pointer-events="all"/><g fill="rgb(0, 0, 0)" font-family="Times New Roman" text-anchor="middle" font-size="15px"><text x="154" y="139">LeWin Transformer</text><text x="154" y="157">Block</text><text x="154" y="175">×2</text></g><rect x="77" y="191" width="155" height="30" rx="4.5" ry="4.5" fill="#ccffe6" stroke="rgb(0, 0, 0)" pointer-events="all"/><g fill="rgb(0, 0, 0)" font-family="Times New Roman" text-anchor="middle" font-size="15px"><text x="154" y="212">Down-sampling</text></g><rect x="785" y="30" width="110" height="280" rx="16.5" ry="16.5" fill="#e9ecf1" stroke="rgb(0, 0, 0)" pointer-events="all"/><path d="M 154.5 89 L 154.5 104.63" fill="none" stroke="rgb(0, 0, 0)" stroke-miterlimit="10" pointer-events="stroke"/><path d="M 154.5 109.88 L 151 102.88 L 154.5 104.63 L 158 102.88 Z" fill="rgb(0, 0, 0)" stroke="rgb(0, 0, 0)" stroke-miterlimit="10" pointer-events="all"/><rect x="77" y="59" width="155" height="30" rx="4.5" ry="4.5" fill="#a9c4eb" stroke="rgb(0, 0, 0)" pointer-events="all"/><g fill="rgb(0, 0, 0)" font-family="Times New Roman" text-anchor="middle" font-size="15px"><text x="154" y="80">Input Projection</text></g><rect x="95" y="0" width="120" height="20" fill="none" stroke="none" pointer-events="all"/><g fill="rgb(0, 0, 0)" font-family="Times New Roman" text-anchor="middle" font-size="15px"><text x="154.5" y="16">Degraded Image</text></g><path d="M 155 23 L 154.59 52.63" fill="none" stroke="rgb(0, 0, 0)" stroke-miterlimit="10" pointer-events="stroke"/><path d="M 154.52 57.88 L 151.11 50.83 L 154.59 52.63 L 158.11 50.93 Z" fill="rgb(0, 0, 0)" stroke="rgb(0, 0, 0)" stroke-miterlimit="10" pointer-events="all"/><rect x="244.5" y="125" width="110" height="20" fill="none" stroke="none" pointer-events="all"/><g fill="rgb(0, 0, 0)" font-family="Times New Roman" text-anchor="middle" font-size="15px"><text x="299" y="141">Skip-connection</text></g><rect x="370" y="59" width="150" height="30" rx="4.5" ry="4.5" fill="#a9c4eb" stroke="rgb(0, 0, 0)" pointer-events="all"/><g fill="rgb(0, 0, 0)" font-family="Times New Roman" text-anchor="middle" font-size="15px"><text x="444.5" y="80">Ouput Projection</text></g><rect x="390" y="0" width="110" height="20" fill="none" stroke="none" pointer-events="all"/><g fill="rgb(0, 0, 0)" font-family="Times New Roman" text-anchor="middle" font-size="15px"><text x="444.5" y="16">Restored Image</text></g><path d="M 445 40 L 445 26.37" fill="none" stroke="rgb(0, 0, 0)" stroke-miterlimit="10" pointer-events="stroke"/><path d="M 445 21.12 L 448.5 28.12 L 445 26.37 L 441.5 28.12 Z" fill="rgb(0, 0, 0)" stroke="rgb(0, 0, 0)" stroke-miterlimit="10" pointer-events="all"/><path d="M 445 59 L 445 52" fill="none" stroke="rgb(0, 0, 0)" stroke-miterlimit="10" pointer-events="stroke"/><path d="M 157 43.58 L 430.63 43.58" fill="none" stroke="rgb(0, 0, 0)" stroke-miterlimit="10" pointer-events="stroke"/><path d="M 435.88 43.58 L 428.88 47.08 L 430.63 43.58 L 428.88 40.08 Z" fill="rgb(0, 0, 0)" stroke="rgb(0, 0, 0)" stroke-miterlimit="10" pointer-events="all"/><ellipse cx="445" cy="44" rx="8" ry="8" fill="#ffffff" stroke="rgb(0, 0, 0)" pointer-events="all"/><path d="M 441 44 L 445 44 L 445 40 L 445 40 L 445 44 L 449 44 L 449 44 L 445 44 L 445 48 L 445 48 L 445 44 L 441 44 Z" fill="#1a1a1a" stroke="rgb(0, 0, 0)" stroke-miterlimit="10" pointer-events="all"/><rect x="485" y="91" width="70" height="20" fill="none" stroke="none" pointer-events="all"/><g fill="#B5739D" font-family="Times New Roman" text-anchor="middle" font-size="15px"><text x="519.5" y="107">C×H×W</text></g><rect x="490" y="36" width="60" height="20" fill="none" stroke="none" pointer-events="all"/><g fill="#B5739D" font-family="Times New Roman" text-anchor="middle" font-size="15px"><text x="519.5" y="52">3×H×W</text></g><rect x="635" y="30" width="110" height="280" rx="16.5" ry="16.5" fill="#e9ecf1" stroke="rgb(0, 0, 0)" pointer-events="all"/><path d="M 690 255 L 690 246.37" fill="none" stroke="rgb(0, 0, 0)" stroke-miterlimit="10" pointer-events="stroke"/><path d="M 690 241.12 L 693.5 248.12 L 690 246.37 L 686.5 248.12 Z" fill="rgb(0, 0, 0)" stroke="rgb(0, 0, 0)" stroke-miterlimit="10" pointer-events="all"/><rect x="655" y="255" width="70" height="30" rx="4.5" ry="4.5" fill="#ffffcc" stroke="rgb(0, 0, 0)" pointer-events="all"/><g fill="#1A1A1A" font-family="Times New Roman" text-anchor="middle" font-size="15px"><text x="689.5" y="276">LN</text></g><path d="M 690 210 L 690 200" fill="none" stroke="rgb(0, 0, 0)" stroke-miterlimit="10" pointer-events="stroke"/><rect x="655" y="210" width="70" height="30" rx="4.5" ry="4.5" fill="#cda2be" stroke="rgb(0, 0, 0)" pointer-events="all"/><g fill="#1A1A1A" font-family="Times New Roman" text-anchor="middle" font-size="15px"><text x="689.5" y="231">W-MSA</text></g><path d="M 690 190 L 690 166.37" fill="none" stroke="rgb(0, 0, 0)" stroke-miterlimit="10" pointer-events="stroke"/><path d="M 690 161.12 L 693.5 168.12 L 690 166.37 L 686.5 168.12 Z" fill="rgb(0, 0, 0)" stroke="rgb(0, 0, 0)" stroke-miterlimit="10" pointer-events="all"/><path d="M 690 300.03 L 735 300 L 735 192 L 704.37 192" fill="none" stroke="rgb(0, 0, 0)" stroke-miterlimit="10" pointer-events="stroke"/><path d="M 699.12 192 L 706.12 188.5 L 704.37 192 L 706.12 195.5 Z" fill="rgb(0, 0, 0)" stroke="rgb(0, 0, 0)" stroke-miterlimit="10" pointer-events="all"/><ellipse cx="690" cy="192" rx="8" ry="8" fill="#ffffff" stroke="rgb(0, 0, 0)" pointer-events="all"/><path d="M 686 192 L 690 192 L 690 188 L 690 188 L 690 192 L 694 192 L 694 192 L 690 192 L 690 196 L 690 196 L 690 192 L 686 192 Z" fill="#1a1a1a" stroke="rgb(0, 0, 0)" stroke-miterlimit="10" pointer-events="all"/><path d="M 690 130 L 690 116.37" fill="none" stroke="rgb(0, 0, 0)" stroke-miterlimit="10" pointer-events="stroke"/><path d="M 690 111.12 L 693.5 118.12 L 690 116.37 L 686.5 118.12 Z" fill="rgb(0, 0, 0)" stroke="rgb(0, 0, 0)" stroke-miterlimit="10" pointer-events="all"/><rect x="655" y="130" width="70" height="30" rx="4.5" ry="4.5" fill="#ffffcc" stroke="rgb(0, 0, 0)" pointer-events="all"/><g fill="#1A1A1A" font-family="Times New Roman" text-anchor="middle" font-size="15px"><text x="689.5" y="151">LN</text></g><path d="M 690 80 L 690 66.37" fill="none" stroke="rgb(0, 0, 0)" stroke-miterlimit="10" pointer-events="stroke"/><path d="M 690 61.12 L 693.5 68.12 L 690 66.37 L 686.5 68.12 Z" fill="rgb(0, 0, 0)" stroke="rgb(0, 0, 0)" stroke-miterlimit="10" pointer-events="all"/><rect x="655" y="80" width="70" height="30" rx="4.5" ry="4.5" fill="#66b2ff" stroke="rgb(0, 0, 0)" pointer-events="all"/><g fill="#1A1A1A" font-family="Times New Roman" text-anchor="middle" font-size="15px"><text x="689.5" y="101">LeFF</text></g><path d="M 690 330.03 L 690 291.37" fill="none" stroke="rgb(0, 0, 0)" stroke-miterlimit="10" pointer-events="stroke"/><path d="M 690 286.12 L 693.5 293.12 L 690 291.37 L 686.5 293.12 Z" fill="rgb(0, 0, 0)" stroke="rgb(0, 0, 0)" stroke-miterlimit="10" pointer-events="all"/><path d="M 690 180 L 735 180 L 735 52 L 704.37 52" fill="none" stroke="rgb(0, 0, 0)" stroke-miterlimit="10" pointer-events="stroke"/><path d="M 699.12 52 L 706.12 48.5 L 704.37 52 L 706.12 55.5 Z" fill="rgb(0, 0, 0)" stroke="rgb(0, 0, 0)" stroke-miterlimit="10" pointer-events="all"/><path d="M 690 44 L 690 24 L 765 24 L 765 320 L 840 320 L 840 291.37" fill="none" stroke="rgb(0, 0, 0)" stroke-miterlimit="10" pointer-events="stroke"/><path d="M 840 286.12 L 843.5 293.12 L 840 291.37 L 836.5 293.12 Z" fill="rgb(0, 0, 0)" stroke="rgb(0, 0, 0)" stroke-miterlimit="10" pointer-events="all"/><ellipse cx="690" cy="52" rx="8" ry="8" fill="#ffffff" stroke="rgb(0, 0, 0)" pointer-events="all"/><path d="M 686 52 L 690 52 L 690 48 L 690 48 L 690 52 L 694 52 L 694 52 L 690 52 L 690 56 L 690 56 L 690 52 L 686 52 Z" fill="#1a1a1a" stroke="rgb(0, 0, 0)" stroke-miterlimit="10" pointer-events="all"/><path d="M 840 255 L 840 246.37" fill="none" stroke="rgb(0, 0, 0)" stroke-miterlimit="10" pointer-events="stroke"/><path d="M 840 241.12 L 843.5 248.12 L 840 246.37 L 836.5 248.12 Z" fill="rgb(0, 0, 0)" stroke="rgb(0, 0, 0)" stroke-miterlimit="10" pointer-events="all"/><rect x="805" y="255" width="70" height="30" rx="4.5" ry="4.5" fill="#ffffcc" stroke="rgb(0, 0, 0)" pointer-events="all"/><g fill="#1A1A1A" font-family="Times New Roman" text-anchor="middle" font-size="15px"><text x="839.5" y="276">LN</text></g><path d="M 840 210 L 840 200" fill="none" stroke="rgb(0, 0, 0)" stroke-miterlimit="10" pointer-events="stroke"/><rect x="805" y="210" width="70" height="30" rx="4.5" ry="4.5" fill="#cda2be" stroke="rgb(0, 0, 0)" pointer-events="all"/><g fill="#1A1A1A" font-family="Times New Roman" text-anchor="middle" font-size="15px"><text x="839.5" y="231">SW-MSA</text></g><path d="M 840 190 L 840 166.37" fill="none" stroke="rgb(0, 0, 0)" stroke-miterlimit="10" pointer-events="stroke"/><path d="M 840 161.12 L 843.5 168.12 L 840 166.37 L 836.5 168.12 Z" fill="rgb(0, 0, 0)" stroke="rgb(0, 0, 0)" stroke-miterlimit="10" pointer-events="all"/><path d="M 840 300.03 L 885 300 L 885 192 L 854.37 192" fill="none" stroke="rgb(0, 0, 0)" stroke-miterlimit="10" pointer-events="stroke"/><path d="M 849.12 192 L 856.12 188.5 L 854.37 192 L 856.12 195.5 Z" fill="rgb(0, 0, 0)" stroke="rgb(0, 0, 0)" stroke-miterlimit="10" pointer-events="all"/><ellipse cx="840" cy="192" rx="8" ry="8" fill="#ffffff" stroke="rgb(0, 0, 0)" pointer-events="all"/><path d="M 836 192 L 840 192 L 840 188 L 840 188 L 840 192 L 844 192 L 844 192 L 840 192 L 840 196 L 840 196 L 840 192 L 836 192 Z" fill="#1a1a1a" stroke="rgb(0, 0, 0)" stroke-miterlimit="10" pointer-events="all"/><path d="M 840 130 L 840 116.37" fill="none" stroke="rgb(0, 0, 0)" stroke-miterlimit="10" pointer-events="stroke"/><path d="M 840 111.12 L 843.5 118.12 L 840 116.37 L 836.5 118.12 Z" fill="rgb(0, 0, 0)" stroke="rgb(0, 0, 0)" stroke-miterlimit="10" pointer-events="all"/><rect x="805" y="130" width="70" height="30" rx="4.5" ry="4.5" fill="#ffffcc" stroke="rgb(0, 0, 0)" pointer-events="all"/><g fill="#1A1A1A" font-family="Times New Roman" text-anchor="middle" font-size="15px"><text x="839.5" y="151">LN</text></g><path d="M 840 80 L 840 66.37" fill="none" stroke="rgb(0, 0, 0)" stroke-miterlimit="10" pointer-events="stroke"/><path d="M 840 61.12 L 843.5 68.12 L 840 66.37 L 836.5 68.12 Z" fill="rgb(0, 0, 0)" stroke="rgb(0, 0, 0)" stroke-miterlimit="10" pointer-events="all"/><rect x="805" y="80" width="70" height="30" rx="4.5" ry="4.5" fill="#66b2ff" stroke="rgb(0, 0, 0)" pointer-events="all"/><g fill="#1A1A1A" font-family="Times New Roman" text-anchor="middle" font-size="15px"><text x="839.5" y="101">LeFF</text></g><path d="M 840 180 L 885 180 L 885 52 L 854.37 52" fill="none" stroke="rgb(0, 0, 0)" stroke-miterlimit="10" pointer-events="stroke"/><path d="M 849.12 52 L 856.12 48.5 L 854.37 52 L 856.12 55.5 Z" fill="rgb(0, 0, 0)" stroke="rgb(0, 0, 0)" stroke-miterlimit="10" pointer-events="all"/><path d="M 840 44 L 839.86 16.37" fill="none" stroke="rgb(0, 0, 0)" stroke-miterlimit="10" pointer-events="stroke"/><path d="M 839.83 11.12 L 843.37 18.1 L 839.86 16.37 L 836.37 18.14 Z" fill="rgb(0, 0, 0)" stroke="rgb(0, 0, 0)" stroke-miterlimit="10" pointer-events="all"/><ellipse cx="840" cy="52" rx="8" ry="8" fill="#ffffff" stroke="rgb(0, 0, 0)" pointer-events="all"/><path d="M 836 52 L 840 52 L 840 48 L 840 48 L 840 52 L 844 52 L 844 52 L 840 52 L 840 56 L 840 56 L 840 52 L 836 52 Z" fill="#1a1a1a" stroke="rgb(0, 0, 0)" stroke-miterlimit="10" pointer-events="all"/><path d="M 756.41 640 L 756.41 628" fill="none" stroke="rgb(0, 0, 0)" stroke-miterlimit="10" pointer-events="stroke"/><path d="M 756.41 674 L 756.8 719" fill="none" stroke="rgb(0, 0, 0)" stroke-miterlimit="10" pointer-events="stroke"/><rect x="706.41" y="640" width="100" height="34" rx="5.1" ry="5.1" fill="#66b2ff" stroke="rgb(0, 0, 0)" pointer-events="all"/><g fill="#1A1A1A" font-family="Times New Roman" text-anchor="middle" font-size="15px"><text x="755.91" y="663">Conv. (1×1)</text></g><rect x="706.41" y="594" width="100" height="34" rx="5.1" ry="5.1" fill="#66b2ff" stroke="rgb(0, 0, 0)" pointer-events="all"/><g fill="#1A1A1A" font-family="Times New Roman" text-anchor="middle" font-size="15px"><text x="755.91" y="617">Tokens2Img</text></g><rect x="706.41" y="489" width="100" height="34" rx="5.1" ry="5.1" fill="#66b2ff" stroke="rgb(0, 0, 0)" pointer-events="all"/><g fill="#1A1A1A" font-family="Times New Roman" text-anchor="middle" font-size="15px"><text x="755.91" y="512">Img2Tokens</text></g><path d="M 755.41 445 L 756.41 433" fill="none" stroke="rgb(0, 0, 0)" stroke-miterlimit="10" pointer-events="stroke"/><path d="M 755.41 479 L 756.41 489" fill="none" stroke="rgb(0, 0, 0)" stroke-miterlimit="10" pointer-events="stroke"/><rect x="705.99" y="445" width="98.84" height="34" rx="5.1" ry="5.1" fill="#66b2ff" stroke="rgb(0, 0, 0)" pointer-events="all"/><g fill="#1A1A1A" font-family="Times New Roman" text-anchor="middle" font-size="15px"><text x="754.91" y="468">Conv. (1×1)</text></g><path d="M 756.41 417 L 756.05 401.37" fill="none" stroke="rgb(0, 0, 0)" stroke-miterlimit="10" pointer-events="stroke"/><path d="M 755.94 396.12 L 759.59 403.04 L 756.05 401.37 L 752.6 403.2 Z" fill="rgb(0, 0, 0)" stroke="rgb(0, 0, 0)" stroke-miterlimit="10" pointer-events="all"/><path d="M 755.99 699 L 836 699 L 836 425 L 770.78 425" fill="none" stroke="rgb(0, 0, 0)" stroke-miterlimit="10" pointer-events="stroke"/><path d="M 765.53 425 L 772.53 421.5 L 770.78 425 L 772.53 428.5 Z" fill="rgb(0, 0, 0)" stroke="rgb(0, 0, 0)" stroke-miterlimit="10" pointer-events="all"/><ellipse cx="756.41" cy="425" rx="8" ry="8" fill="#ffffff" stroke="rgb(0, 0, 0)" pointer-events="all"/><path d="M 752.41 425 L 756.41 425 L 756.41 421 L 756.41 421 L 756.41 425 L 760.41 425 L 760.41 425 L 756.41 425 L 756.41 429 L 756.41 429 L 756.41 425 L 752.41 425 Z" fill="#1a1a1a" stroke="rgb(0, 0, 0)" stroke-miterlimit="10" pointer-events="all"/><path d="M 756.41 534 L 756.41 523" fill="none" stroke="rgb(0, 0, 0)" stroke-miterlimit="10" pointer-events="stroke"/><rect x="706.41" y="534" width="100" height="50" rx="7.5" ry="7.5" fill="#99ccff" stroke="rgb(0, 0, 0)" pointer-events="all"/><g fill="#1A1A1A" font-family="Times New Roman" text-anchor="middle" font-size="15px"><text x="755.91" y="556">Depthwise</text><text x="755.91" y="574">Conv. (3×3)</text></g><path d="M 756.41 594 L 756.41 584" fill="none" stroke="rgb(0, 0, 0)" stroke-miterlimit="10" pointer-events="stroke"/><path d="M 580 726 L 580 56" fill="none" stroke="rgb(0, 0, 0)" stroke-miterlimit="10" stroke-dasharray="3 3" pointer-events="stroke"/><rect x="741.41" y="342" width="30" height="20" fill="none" stroke="none" pointer-events="all"/><g fill="rgb(0, 0, 0)" font-family="Times New Roman" text-anchor="middle" font-size="15px"><text x="755.91" y="358">(b)</text></g><rect x="741.41" y="731" width="30" height="20" fill="none" stroke="none" pointer-events="all"/><g fill="rgb(0, 0, 0)" font-family="Times New Roman" text-anchor="middle" font-size="15px"><text x="755.91" y="747">(c)</text></g><path d="M 580 370.46 L 910 370.46" fill="none" stroke="rgb(0, 0, 0)" stroke-miterlimit="10" stroke-dasharray="3 3" pointer-events="stroke"/><rect x="360" y="111" width="170" height="120" fill="#ffcc99" stroke="rgb(0, 0, 0)" pointer-events="all"/><path d="M 445 121 L 445 95.37" fill="none" stroke="rgb(0, 0, 0)" stroke-miterlimit="10" pointer-events="stroke"/><path d="M 445 90.12 L 448.5 97.12 L 445 95.37 L 441.5 97.12 Z" fill="rgb(0, 0, 0)" stroke="rgb(0, 0, 0)" stroke-miterlimit="10" pointer-events="all"/><rect x="370" y="121" width="150" height="60" rx="9" ry="9" fill="#ccff99" stroke="rgb(0, 0, 0)" pointer-events="all"/><g fill="rgb(0, 0, 0)" font-family="Times New Roman" text-anchor="middle" font-size="15px"><text x="444.5" y="139">LeWin Transformer</text><text x="444.5" y="157">Block</text><text x="444.5" y="175">×2</text></g><rect x="370" y="191" width="150" height="30" rx="4.5" ry="4.5" fill="#ffff66" stroke="rgb(0, 0, 0)" pointer-events="all"/><g fill="rgb(0, 0, 0)" font-family="Times New Roman" text-anchor="middle" font-size="15px"><text x="444.5" y="212">Up-sampling</text></g><path d="M 232 151 L 363.63 151" fill="none" stroke="rgb(0, 0, 0)" stroke-miterlimit="10" pointer-events="stroke"/><path d="M 368.88 151 L 361.88 154.5 L 363.63 151 L 361.88 147.5 Z" fill="rgb(0, 0, 0)" stroke="rgb(0, 0, 0)" stroke-miterlimit="10" pointer-events="all"/><rect x="70" y="252" width="170" height="120" fill="#ffb366" stroke="rgb(0, 0, 0)" pointer-events="all"/><rect x="77.5" y="262" width="155" height="60" rx="9" ry="9" fill="#ccff99" stroke="rgb(0, 0, 0)" pointer-events="all"/><g fill="rgb(0, 0, 0)" font-family="Times New Roman" text-anchor="middle" font-size="15px"><text x="154.5" y="280">LeWin Transformer</text><text x="154.5" y="298">Block</text><text x="154.5" y="316">×2</text></g><rect x="77.5" y="332" width="155" height="30" rx="4.5" ry="4.5" fill="#ccffe6" stroke="rgb(0, 0, 0)" pointer-events="all"/><g fill="rgb(0, 0, 0)" font-family="Times New Roman" text-anchor="middle" font-size="15px"><text x="154.5" y="353">Down-sampling</text></g><path d="M 154.5 231 L 154.9 255.63" fill="none" stroke="rgb(0, 0, 0)" stroke-miterlimit="10" pointer-events="stroke"/><path d="M 154.98 260.88 L 151.37 253.94 L 154.9 255.63 L 158.37 253.83 Z" fill="rgb(0, 0, 0)" stroke="rgb(0, 0, 0)" stroke-miterlimit="10" pointer-events="all"/><rect x="69.5" y="392" width="170" height="120" fill="#ffb366" stroke="rgb(0, 0, 0)" pointer-events="all"/><rect x="77" y="402" width="155" height="60" rx="9" ry="9" fill="#ccff99" stroke="rgb(0, 0, 0)" pointer-events="all"/><g fill="rgb(0, 0, 0)" font-family="Times New Roman" text-anchor="middle" font-size="15px"><text x="154" y="420">LeWin Transformer</text><text x="154" y="438">Block</text><text x="154" y="456">×2</text></g><rect x="77" y="472" width="155" height="30" rx="4.5" ry="4.5" fill="#ccffe6" stroke="rgb(0, 0, 0)" pointer-events="all"/><g fill="rgb(0, 0, 0)" font-family="Times New Roman" text-anchor="middle" font-size="15px"><text x="154" y="493">Down-sampling</text></g><rect x="70" y="531.97" width="170" height="120" fill="#ffb366" stroke="rgb(0, 0, 0)" pointer-events="all"/><rect x="77.5" y="541.97" width="155" height="60" rx="9" ry="9" fill="#ccff99" stroke="rgb(0, 0, 0)" pointer-events="all"/><g fill="rgb(0, 0, 0)" font-family="Times New Roman" text-anchor="middle" font-size="15px"><text x="154.5" y="559.97">LeWin Transformer</text><text x="154.5" y="577.97">Block</text><text x="154.5" y="595.97">×2</text></g><rect x="77.5" y="611.97" width="155" height="30" rx="4.5" ry="4.5" fill="#ccffe6" stroke="rgb(0, 0, 0)" pointer-events="all"/><g fill="rgb(0, 0, 0)" font-family="Times New Roman" text-anchor="middle" font-size="15px"><text x="154.5" y="632.97">Down-sampling</text></g><rect x="217.5" y="661" width="155" height="60" rx="9" ry="9" fill="#ccff99" stroke="rgb(0, 0, 0)" pointer-events="all"/><g fill="rgb(0, 0, 0)" font-family="Times New Roman" text-anchor="middle" font-size="15px"><text x="294.5" y="679">LeWin Transformer</text><text x="294.5" y="697">Block</text><text x="294.5" y="715">×2</text></g><rect x="360" y="252" width="170" height="120" fill="#ffcc99" stroke="rgb(0, 0, 0)" pointer-events="all"/><path d="M 445 262 L 445 237.37" fill="none" stroke="rgb(0, 0, 0)" stroke-miterlimit="10" pointer-events="stroke"/><path d="M 445 232.12 L 448.5 239.12 L 445 237.37 L 441.5 239.12 Z" fill="rgb(0, 0, 0)" stroke="rgb(0, 0, 0)" stroke-miterlimit="10" pointer-events="all"/><rect x="370" y="262" width="150" height="60" rx="9" ry="9" fill="#ccff99" stroke="rgb(0, 0, 0)" pointer-events="all"/><g fill="rgb(0, 0, 0)" font-family="Times New Roman" text-anchor="middle" font-size="15px"><text x="444.5" y="280">LeWin Transformer</text><text x="444.5" y="298">Block</text><text x="444.5" y="316">×2</text></g><rect x="370" y="332" width="150" height="30" rx="4.5" ry="4.5" fill="#ffff66" stroke="rgb(0, 0, 0)" pointer-events="all"/><g fill="rgb(0, 0, 0)" font-family="Times New Roman" text-anchor="middle" font-size="15px"><text x="444.5" y="353">Up-sampling</text></g><rect x="360" y="392" width="170" height="120" fill="#ffcc99" stroke="rgb(0, 0, 0)" pointer-events="all"/><path d="M 445 402 L 444.57 382.37" fill="none" stroke="rgb(0, 0, 0)" stroke-miterlimit="10" pointer-events="stroke"/><path d="M 444.45 377.12 L 448.11 384.04 L 444.57 382.37 L 441.11 384.19 Z" fill="rgb(0, 0, 0)" stroke="rgb(0, 0, 0)" stroke-miterlimit="10" pointer-events="all"/><rect x="370" y="402" width="150" height="60" rx="9" ry="9" fill="#ccff99" stroke="rgb(0, 0, 0)" pointer-events="all"/><g fill="rgb(0, 0, 0)" font-family="Times New Roman" text-anchor="middle" font-size="15px"><text x="444.5" y="420">LeWin Transformer</text><text x="444.5" y="438">Block</text><text x="444.5" y="456">×2</text></g><rect x="370" y="472" width="150" height="30" rx="4.5" ry="4.5" fill="#ffff66" stroke="rgb(0, 0, 0)" pointer-events="all"/><g fill="rgb(0, 0, 0)" font-family="Times New Roman" text-anchor="middle" font-size="15px"><text x="444.5" y="493">Up-sampling</text></g><rect x="360" y="531.97" width="170" height="120" fill="#ffcc99" stroke="rgb(0, 0, 0)" pointer-events="all"/><path d="M 445 541.97 L 445 518.37" fill="none" stroke="rgb(0, 0, 0)" stroke-miterlimit="10" pointer-events="stroke"/><path d="M 445 513.12 L 448.5 520.12 L 445 518.37 L 441.5 520.12 Z" fill="rgb(0, 0, 0)" stroke="rgb(0, 0, 0)" stroke-miterlimit="10" pointer-events="all"/><rect x="370" y="541.97" width="150" height="60" rx="9" ry="9" fill="#ccff99" stroke="rgb(0, 0, 0)" pointer-events="all"/><g fill="rgb(0, 0, 0)" font-family="Times New Roman" text-anchor="middle" font-size="15px"><text x="444.5" y="559.97">LeWin Transformer</text><text x="444.5" y="577.97">Block</text><text x="444.5" y="595.97">×2</text></g><rect x="370" y="611.97" width="150" height="30" rx="4.5" ry="4.5" fill="#ffff66" stroke="rgb(0, 0, 0)" pointer-events="all"/><g fill="rgb(0, 0, 0)" font-family="Times New Roman" text-anchor="middle" font-size="15px"><text x="444.5" y="632.97">Up-sampling</text></g><rect x="280" y="731" width="30" height="20" fill="none" stroke="none" pointer-events="all"/><g fill="rgb(0, 0, 0)" font-family="Times New Roman" text-anchor="middle" font-size="15px"><text x="294.5" y="747">(a)</text></g><path d="M 155 641.97 L 155 691 L 211.13 691" fill="none" stroke="rgb(0, 0, 0)" stroke-miterlimit="10" pointer-events="stroke"/><path d="M 216.38 691 L 209.38 694.5 L 211.13 691 L 209.38 687.5 Z" fill="rgb(0, 0, 0)" stroke="rgb(0, 0, 0)" stroke-miterlimit="10" pointer-events="all"/><path d="M 372.5 691 L 445 691 L 445 658.34" fill="none" stroke="rgb(0, 0, 0)" stroke-miterlimit="10" pointer-events="stroke"/><path d="M 445 653.09 L 448.5 660.09 L 445 658.34 L 441.5 660.09 Z" fill="rgb(0, 0, 0)" stroke="rgb(0, 0, 0)" stroke-miterlimit="10" pointer-events="all"/><path d="M 155 372 L 154.61 395.63" fill="none" stroke="rgb(0, 0, 0)" stroke-miterlimit="10" pointer-events="stroke"/><path d="M 154.52 400.88 L 151.14 393.82 L 154.61 395.63 L 158.13 393.94 Z" fill="rgb(0, 0, 0)" stroke="rgb(0, 0, 0)" stroke-miterlimit="10" pointer-events="all"/><path d="M 154.5 512 L 154.89 535.6" fill="none" stroke="rgb(0, 0, 0)" stroke-miterlimit="10" pointer-events="stroke"/><path d="M 154.98 540.85 L 151.37 533.91 L 154.89 535.6 L 158.36 533.79 Z" fill="rgb(0, 0, 0)" stroke="rgb(0, 0, 0)" stroke-miterlimit="10" pointer-events="all"/><rect x="30" y="39" width="60" height="20" fill="none" stroke="none" pointer-events="all"/><g fill="#B5739D" font-family="Times New Roman" text-anchor="middle" font-size="15px"><text x="59.5" y="55">3×H×W</text></g><rect x="25" y="91" width="70" height="20" fill="none" stroke="none" pointer-events="all"/><g fill="#B5739D" font-family="Times New Roman" text-anchor="middle" font-size="15px"><text x="59.5" y="107">C×H×W</text></g><rect x="10" y="232" width="100" height="20" fill="none" stroke="none" pointer-events="all"/><g fill="#B5739D" font-family="Times New Roman" text-anchor="middle" font-size="15px"><text x="59.5" y="248">2C×H/2×W/2</text></g><rect x="10" y="372" width="100" height="20" fill="none" stroke="none" pointer-events="all"/><g fill="#B5739D" font-family="Times New Roman" text-anchor="middle" font-size="15px"><text x="59.5" y="388">4C×H/4×W/4</text></g><rect x="15" y="512" width="100" height="20" fill="none" stroke="none" pointer-events="all"/><g fill="#B5739D" font-family="Times New Roman" text-anchor="middle" font-size="15px"><text x="64.5" y="528">8C×H/8×W/8</text></g><rect x="0" y="661" width="120" height="20" fill="none" stroke="none" pointer-events="all"/><g fill="#B5739D" font-family="Times New Roman" text-anchor="middle" font-size="15px"><text x="59.5" y="677">16C×H/16×W/16</text></g><rect x="460" y="661" width="120" height="20" fill="none" stroke="none" pointer-events="all"/><g fill="#B5739D" font-family="Times New Roman" text-anchor="middle" font-size="15px"><text x="519.5" y="677">16C×H/16×W/16</text></g><rect x="470" y="512" width="100" height="20" fill="none" stroke="none" pointer-events="all"/><g fill="#B5739D" font-family="Times New Roman" text-anchor="middle" font-size="15px"><text x="519.5" y="528">8C×H/8×W/8</text></g><rect x="470" y="372" width="100" height="20" fill="none" stroke="none" pointer-events="all"/><g fill="#B5739D" font-family="Times New Roman" text-anchor="middle" font-size="15px"><text x="519.5" y="388">4C×H/4×W/4</text></g><rect x="470" y="232" width="100" height="20" fill="none" stroke="none" pointer-events="all"/><g fill="#B5739D" font-family="Times New Roman" text-anchor="middle" font-size="15px"><text x="519.5" y="248">2C×H/2×W/2</text></g><rect x="244.5" y="265" width="110" height="20" fill="none" stroke="none" pointer-events="all"/><g fill="rgb(0, 0, 0)" font-family="Times New Roman" text-anchor="middle" font-size="15px"><text x="299" y="281">Skip-connection</text></g><path d="M 232 291 L 363.63 291" fill="none" stroke="rgb(0, 0, 0)" stroke-miterlimit="10" pointer-events="stroke"/><path d="M 368.88 291 L 361.88 294.5 L 363.63 291 L 361.88 287.5 Z" fill="rgb(0, 0, 0)" stroke="rgb(0, 0, 0)" stroke-miterlimit="10" pointer-events="all"/><rect x="244.5" y="406" width="110" height="20" fill="none" stroke="none" pointer-events="all"/><g fill="rgb(0, 0, 0)" font-family="Times New Roman" text-anchor="middle" font-size="15px"><text x="299" y="422">Skip-connection</text></g><path d="M 232.5 433.54 L 364.13 433.54" fill="none" stroke="rgb(0, 0, 0)" stroke-miterlimit="10" pointer-events="stroke"/><path d="M 369.38 433.54 L 362.38 437.04 L 364.13 433.54 L 362.38 430.04 Z" fill="rgb(0, 0, 0)" stroke="rgb(0, 0, 0)" stroke-miterlimit="10" pointer-events="all"/><rect x="244.5" y="541.97" width="110" height="20" fill="none" stroke="none" pointer-events="all"/><g fill="rgb(0, 0, 0)" font-family="Times New Roman" text-anchor="middle" font-size="15px"><text x="299" y="557.97">Skip-connection</text></g><path d="M 232.5 572.76 L 364.13 572.76" fill="none" stroke="rgb(0, 0, 0)" stroke-miterlimit="10" pointer-events="stroke"/><path d="M 369.38 572.76 L 362.38 576.26 L 364.13 572.76 L 362.38 569.26 Z" fill="rgb(0, 0, 0)" stroke="rgb(0, 0, 0)" stroke-miterlimit="10" pointer-events="all"/></g></svg>